<?xml version="1.0" encoding="UTF-8" standalone="no"?>
<svg
   xmlns:dc="http://purl.org/dc/elements/1.1/"
   xmlns:cc="http://creativecommons.org/ns#"
   xmlns:rdf="http://www.w3.org/1999/02/22-rdf-syntax-ns#"
   xmlns:svg="http://www.w3.org/2000/svg"
   xmlns="http://www.w3.org/2000/svg"
   xmlns:sodipodi="http://sodipodi.sourceforge.net/DTD/sodipodi-0.dtd"
   xmlns:inkscape="http://www.inkscape.org/namespaces/inkscape"
   version="1.1"
   width="3352.1899"
   height="2781.2383"
   id="svg12"
   sodipodi:docname="coteDechir.svg"
   inkscape:version="1.0.2-2 (e86c870879, 2021-01-15)">
  <metadata
     id="metadata18">
    <rdf:RDF>
      <cc:Work
         rdf:about="">
        <dc:format>image/svg+xml</dc:format>
        <dc:type
           rdf:resource="http://purl.org/dc/dcmitype/StillImage" />
        <dc:title></dc:title>
      </cc:Work>
    </rdf:RDF>
  </metadata>
  <defs
     id="defs16" />
  <sodipodi:namedview
     pagecolor="#ffffff"
     bordercolor="#666666"
     borderopacity="1"
     objecttolerance="10"
     gridtolerance="10"
     guidetolerance="10"
     inkscape:pageopacity="0"
     inkscape:pageshadow="2"
     inkscape:window-width="1920"
     inkscape:window-height="1009"
     id="namedview14"
     showgrid="false"
     inkscape:zoom="0.18937203"
     inkscape:cx="902.0046"
     inkscape:cy="1127.0318"
     inkscape:window-x="-8"
     inkscape:window-y="-8"
     inkscape:window-maximized="1"
     inkscape:current-layer="svg12"
     inkscape:document-rotation="0"
     fit-margin-top="0.2"
     fit-margin-left="0.2"
     fit-margin-bottom="0.2"
     fit-margin-right="0.2" />
  <path
     id="path2"
     d="m 3347.4031,0.25143466 c 0,926.33329534 0,1852.66666534 0,2778.99996534 -214.0579,14.8079 -430.1303,-63.1082 -587.9219,-208.0859 -139.7208,-121.6222 -332.7318,-56.8735 -496.2415,-92.9217 -140.8551,-47.2099 -221.5033,-213.3549 -384.0212,-206.6902 -156.6373,-48.3489 -330.3194,100.2841 -470.705,-29.9038 -100.0174,-70.087 -89.4499,-235.6208 -245.7354,-158.2107 -114.769,-2.4981 -258.53666,30.8179 -351.37496,-50.1877 -32.5088,-54.3533 -25.557,-122.428 11.6236,-177.4375 -105.0309,-56.9605 -179.8392,-181.0509 -317.7486,-179.875 -154.5129,-20.9994 -339.8127,64.506 -469.840502,-58.1498 -63.7175,-37.9555 -33.9948001,-154.7668 33.1914,-175.5225 153.021602,-93.4648 319.901102,-167.4753 498.411102,-193.4324 154.8155,-79.2537 326.2429,-125.1317 491.35426,-180.567 147.7125,-44.3803 335.6707,-18.0751 439.2504,-155.51767 89.8728,-129.1171 189.3741,-275.369 359.4926,-298.4504 94.2186,-59.8252 252.215,35.5788 293.2662,-91.8006 47.364,-40.5904 52.4349,-152.8003 133.2764,-136.574 101.8752,21.1579 111.7286,-119.7488 206.7453,-136.1541 179.8924,-80.8571 382.789,-89.1966 564.1856,-168.014595 97.1212,-27.9008 189.5778,-83.0229003 292.7922,-81.50440034 z"
     style="fill:#a1d1fe;fill-opacity:1" />
  <path
     id="path6"
     d="M 3347.4031,0.25093466 C 3374.9401,90.148235 3272.0032,87.417435 3211.4179,114.77463 c -165.2726,58.9557 -330.7618,118.6139 -504.3975,147.9568 -102.009,41.5414 -231.5105,84.7986 -279.0893,190.4331 -32.5294,114.7218 -74.1801,235.1613 -177.1169,306.355 -133.8364,116.8162 -319.7222,150.1102 -491.6636,127.0552 -153.6961,5.7466 -226.6312,178.99507 -375.5516,202.62937 -132.7636,23.6347 -268.6193,34.6735 -394.81336,86.6595 -164.5737,49.426 -322.7668,138.8551 -498.818,134.4142 -77.8318,2.7361 -202.10469,35.252 -242.29804,36.0302 156.59854,-78.7231 373.67444,-120.1286 565.94524,-196.6439 157.9976,-60.3055 320.64596,-108.6722 489.43086,-125.3867 125.2859,-13.2777 207.1474,-117.76617 270.5786,-215.70367 66.378,-98.2278 164.9073,-173.5481 283.5126,-194.2717 81.4169,-32.9284 182.1146,-18.7493 257.9537,-35.4881 41.219,-62.6345 79.1307,-133.306 124.3651,-190.062 49.377,-8.6246 118.8205,14.5487 135.4056,-49.5559 137.2797,-157.6514 365.8008,-146.5695 548.7628,-213.0121 C 3055.4173,88.747435 3180.5774,25.242435 3315.4716,0.98693466 l 15.8174,-0.603 16.1141,-0.1325 z"
     style="fill:#f63179;fill-opacity:1"
     sodipodi:nodetypes="sccccccccccccccccccccs" />
  <path
     id="path8"
     d="m 3347.4031,0.25143466 c 0,22.33330034 0,44.66670034 0,67.00000034 -145.4869,50.061695 -290.0478,103.075095 -436.6848,149.647295 -108.8864,31.6736 -225.9794,35.9387 -328.5546,87.7886 -45.971,21.7541 -91.6438,43.6799 -139.0156,62.3005 -25.4262,14.3727 -76.4335,20.2202 -92.4357,10.5332 46.6868,-90.8954 145.4767,-137.808 238.7757,-166.766 115.1228,-33.7986 235.0432,-49.0971 348.4799,-89.1906 111.218,-36.650695 220.9792,-77.791795 332.3044,-113.9781953 25.2836,-5.9137 51.2081,-7.72880004 77.1307,-7.33480004 z" />
  <path
     id="path10"
     d="m 1482.4031,932.25143 c -7.3722,17.6375 -22.9077,31.7337 -33.2502,48.1252 -11.4425,15.618 -23.2341,30.99367 -33.8704,47.18337 -28.6388,12.443 -60.8188,16.1865 -90.8651,25.1733 -96.9175,25.0409 -193.8519,50.1526 -290.975,74.3049 -127.17746,17.9228 -252.00846,48.9493 -376.57146,79.6409 -26.5053,7.4585 6.9301,-6.7097 19.7192,-9.2955 151.1673,-49.0377 298.031,-112.8381 453.81566,-146.545 82.4905,-16.7312 169.0081,-16.6873 248.2074,-47.4137 39.0695,-16.58727 71.3048,-44.56517 103.7899,-71.17347 z" />
</svg>
