<?xml version="1.0" encoding="UTF-8" standalone="no"?>
<svg
   xmlns:dc="http://purl.org/dc/elements/1.1/"
   xmlns:cc="http://creativecommons.org/ns#"
   xmlns:rdf="http://www.w3.org/1999/02/22-rdf-syntax-ns#"
   xmlns:svg="http://www.w3.org/2000/svg"
   xmlns="http://www.w3.org/2000/svg"
   xmlns:sodipodi="http://sodipodi.sourceforge.net/DTD/sodipodi-0.dtd"
   xmlns:inkscape="http://www.inkscape.org/namespaces/inkscape"
   version="1.1"
   width="4000"
   height="5658"
   id="svg42"
   sodipodi:docname="Site we_00011.svg"
   inkscape:version="1.0.2-2 (e86c870879, 2021-01-15)">
  <metadata
     id="metadata48">
    <rdf:RDF>
      <cc:Work
         rdf:about="">
        <dc:format>image/svg+xml</dc:format>
        <dc:type
           rdf:resource="http://purl.org/dc/dcmitype/StillImage" />
        <dc:title></dc:title>
      </cc:Work>
    </rdf:RDF>
  </metadata>
  <defs
     id="defs46" />
  <sodipodi:namedview
     pagecolor="#ffffff"
     bordercolor="#666666"
     borderopacity="1"
     objecttolerance="10"
     gridtolerance="10"
     guidetolerance="10"
     inkscape:pageopacity="0"
     inkscape:pageshadow="2"
     inkscape:window-width="850"
     inkscape:window-height="480"
     id="namedview44"
     showgrid="false"
     inkscape:zoom="0.044217359"
     inkscape:cx="2000"
     inkscape:cy="2829"
     inkscape:window-x="0"
     inkscape:window-y="0"
     inkscape:window-maximized="0"
     inkscape:current-layer="svg42" />
  <path
     d="M0 0 C4.31684183 3.33330843 8.18159306 7.11624135 12 11 C13.29744141 12.299375 13.29744141 12.299375 14.62109375 13.625 C30.0913356 29.84341268 41.18018231 51.14811752 49 72 C49.92748047 72.01981934 50.85496094 72.03963867 51.81054688 72.06005859 C55.28475027 72.13862316 58.75855956 72.22532999 62.23242188 72.31738281 C63.72973948 72.35542835 65.22714089 72.39032167 66.72460938 72.421875 C68.88962567 72.46806201 71.05407686 72.52596017 73.21875 72.5859375 C74.51748047 72.6173584 75.81621094 72.6487793 77.15429688 72.68115234 C84.53051532 73.2927154 90.82642661 74.82642661 96.1875 80.1875 C100.80569961 87.35367181 100.29430255 95.55630479 100.265625 103.78515625 C100.26753845 105.00021347 100.2694519 106.21527069 100.27142334 107.46714783 C100.27277968 110.02635913 100.2691219 112.58557745 100.26074219 115.14477539 C100.2500259 119.05305473 100.26066138 122.9608754 100.2734375 126.86914062 C100.27211599 129.36198018 100.26955377 131.85481944 100.265625 134.34765625 C100.26967346 135.51136246 100.27372192 136.67506866 100.27789307 137.8740387 C100.22699566 146.71290918 99.39102154 153.61101902 93.625 160.6875 C86.81217799 166.19016393 76.12141978 165 68 165 C68 210.21 68 255.42 68 302 C103.84088821 301.88131421 103.84088821 301.88131421 139.68164062 301.72973633 C146.62792969 301.71618652 146.62792969 301.71618652 149.88415527 301.71366882 C152.14882172 301.70907486 154.41348101 301.69855014 156.67810059 301.68327332 C160.11690945 301.66124369 163.55527153 301.65828436 166.99414062 301.65942383 C167.99587563 301.6486295 168.99761063 301.63783518 170.02970123 301.62671375 C177.31537399 301.65892725 182.97807365 302.63501416 188.875 307.25 C193.6441398 313.42182798 193.29321031 320.36311409 193.2746582 327.84130859 C193.27976913 328.91052048 193.28488007 329.97973236 193.29014587 331.0813446 C193.30400678 334.60376639 193.30308766 338.12599174 193.30078125 341.6484375 C193.30467017 344.10552035 193.30900525 346.56260253 193.31376648 349.01968384 C193.32122123 354.16581401 193.32094283 359.31187557 193.31567383 364.45800781 C193.3098811 371.0406793 193.32680939 377.62306924 193.3500185 384.2056942 C193.36477668 389.27930331 193.36562467 394.35284494 193.36250877 399.42647171 C193.36302096 401.85286644 193.36823939 404.27926505 193.37832069 406.70563889 C193.39070747 410.10391083 193.38387941 413.50163859 193.37231445 416.89990234 C193.38378006 418.39176811 193.38378006 418.39176811 193.39547729 419.91377258 C193.35014368 425.96462284 192.73413254 431.51565727 190 437 C175.91780218 449.77222593 140.22890329 443 130 443 C130.495 861.275 130.495 861.275 131 1288 C139.91 1290.64 148.82 1293.28 158 1296 C163.35860999 1297.97422473 168.6199473 1299.92420159 173.87402344 1302.12011719 C176.06479571 1303.02681715 178.26848445 1303.89419594 180.4765625 1304.7578125 C199.42700681 1312.29305163 216.95203023 1322.75055874 234.58984375 1332.90234375 C240.53287122 1336.31670358 246.51540381 1339.65919766 252.5 1343 C261.04574735 1347.77282497 269.56343565 1352.59031012 278.05126953 1357.46533203 C282.70172182 1360.1314037 287.36680128 1362.76742017 292.0546875 1365.3671875 C355.63407821 1400.62651091 355.63407821 1400.62651091 370 1421 C370 1421.66 370 1422.32 370 1423 C370.66 1423 371.32 1423 372 1423 C373.67555151 1425.26018639 375.22677697 1427.51484741 376.75 1429.875 C377.42434082 1430.90729736 377.42434082 1430.90729736 378.11230469 1431.96044922 C379.4173953 1433.96788341 380.71060827 1435.98245663 382 1438 C382.88171875 1439.36898437 382.88171875 1439.36898437 383.78125 1440.765625 C389.05255829 1449.23336491 392.89348436 1458.32351693 396.71875 1467.5078125 C397.20641846 1468.67505859 397.69408691 1469.84230469 398.1965332 1471.04492188 C399.18164055 1473.41034092 400.15948671 1475.77879856 401.12963867 1478.15039062 C401.5857251 1479.24802734 402.04181152 1480.34566406 402.51171875 1481.4765625 C402.91865967 1482.46736816 403.32560059 1483.45817383 403.74487305 1484.47900391 C406.52024882 1490.05350891 410.77740276 1491.27452313 416.375 1493.375 C458.51848371 1509.77484889 499.82655975 1530.19560448 539.05859375 1552.62109375 C545.48357623 1556.2895897 551.96106785 1559.86090104 558.4375 1563.4375 C569.03902742 1569.30626981 579.53329664 1575.3379993 589.98046875 1581.4765625 C594.09415749 1583.89210005 598.22206311 1586.28040852 602.36328125 1588.6484375 C616.71119869 1596.85449622 630.83882332 1605.36006844 644.88330078 1614.07421875 C649.77949645 1617.09953533 654.70293014 1620.07954248 659.625 1623.0625 C677.87651895 1634.14910806 695.923686 1645.5510251 713.89453125 1657.0859375 C719.68904634 1660.80462741 725.49955136 1664.49772054 731.3125 1668.1875 C738.27334121 1672.61032676 745.21198198 1677.06528158 752.125 1681.5625 C752.93686768 1682.09004883 753.74873535 1682.61759766 754.58520508 1683.16113281 C758.82633151 1685.92075542 763.05594649 1688.69656685 767.2734375 1691.4921875 C780.16726229 1700.08341395 780.16726229 1700.08341395 794 1707 C795.72476563 1707.74636719 795.72476563 1707.74636719 797.484375 1708.5078125 C806.18030771 1712.03389418 815.0241905 1713.91038535 824.2578125 1715.46484375 C825.52669815 1715.68068115 826.7955838 1715.89651855 828.10292053 1716.11889648 C840.52030185 1718.19440798 852.99884453 1719.64207433 865.50653076 1721.05166626 C922.08740766 1727.50481169 978.59979677 1736.7623266 1034 1750 C1034.94393616 1750.22473999 1035.88787231 1750.44947998 1036.8604126 1750.68103027 C1070.91033298 1758.81406302 1104.20489845 1768.73308658 1137 1781 C1138.89055319 1781.69680944 1140.78117751 1782.39342594 1142.671875 1783.08984375 C1153.0294092 1786.9357759 1163.09233004 1791.10578593 1173 1796 C1173.96365479 1796.47155518 1173.96365479 1796.47155518 1174.94677734 1796.95263672 C1179.65358077 1799.25840802 1184.33398928 1801.61284587 1189 1804 C1189.63969727 1804.32613281 1190.27939453 1804.65226562 1190.93847656 1804.98828125 C1200.32358386 1809.79820862 1209.27348021 1815.07773264 1218 1821 C1218.58136719 1821.39445312 1219.16273438 1821.78890625 1219.76171875 1822.1953125 C1250.33856766 1843.11986694 1281.80909057 1873.98218868 1289.0625 1911.875 C1289.26746094 1913.06222656 1289.26746094 1913.06222656 1289.4765625 1914.2734375 C1290.13929973 1917.72560605 1291.02503565 1921.10741796 1291.9375 1924.5 C1292.11144287 1925.14718994 1292.28538574 1925.79437988 1292.46459961 1926.46118164 C1293.45411959 1930.09957048 1294.50784277 1933.71151096 1295.625 1937.3125 C1296.85425476 1941.29766464 1297.69192807 1945.27015026 1298.375 1949.3828125 C1298.97583852 1952.21663829 1298.97583852 1952.21663829 1300.51196289 1955.57836914 C1302.26382327 1960.21699619 1302.45118265 1964.44409171 1302.43359375 1969.36328125 C1302.4388356 1970.2359111 1302.44407745 1971.10854095 1302.44947815 1972.00761414 C1302.45586604 1973.84385114 1302.45460354 1975.68012925 1302.44604492 1977.51635742 C1302.43755389 1980.29486678 1302.46631027 1983.07130341 1302.49804688 1985.84960938 C1302.53113785 1994.3648925 1302.47706979 2001.82981036 1298.9777832 2009.75170898 C1297.48421409 2013.18598564 1296.94580001 2016.69407175 1296.375 2020.375 C1295.65907962 2024.81541093 1294.76552211 2028.84380983 1293 2033 C1292.48673633 2034.80314097 1292.00946975 2036.61679272 1291.5625 2038.4375 C1291.30082031 2039.49453125 1291.03914063 2040.5515625 1290.76953125 2041.640625 C1290.26353669 2043.84953524 1289.80115131 2046.06897002 1289.38671875 2048.296875 C1284.59521025 2073.81239264 1269.49750783 2098.9536509 1251 2117 C1250.113125 2117.928125 1249.22625 2118.85625 1248.3125 2119.8125 C1246 2122 1246 2122 1244 2122 C1243.814375 2122.54527344 1243.62875 2123.09054688 1243.4375 2123.65234375 C1241.29628813 2127.14926857 1238.2782614 2129.16000272 1235 2131.5625 C1234.29230469 2132.08553711 1233.58460938 2132.60857422 1232.85546875 2133.14746094 C1220.02098426 2142.48112063 1206.36175102 2150.28417864 1192 2157 C1190.23269531 2157.83917969 1190.23269531 2157.83917969 1188.4296875 2158.6953125 C1167.83254091 2168.22430075 1146.10057447 2175.00752625 1124.06494141 2180.26367188 C1121.310388 2180.92543172 1118.56721172 2181.62032483 1115.82421875 2182.328125 C1034.3965762 2202.76074151 945.40804802 2201.00190556 657.16441345 2171.36531067 C653.56581562 2170.75793772 649.96699223 2170.15190485 646.36816406 2169.54589844 C645.65466167 2169.42574686 644.94115929 2169.30559528 644.20603561 2169.18180275 C636.15863611 2167.82687658 628.11080289 2166.47454951 620.0625 2165.125 C619.32831848 2165.00181145 618.59413696 2164.87862289 617.83770752 2164.75170135 C539.08625113 2151.54303623 460.03614102 2139.63071426 184 2113 C182.81116211 2112.94215332 181.62232422 2112.88430664 180.39746094 2112.82470703 C91.3414842 2108.56044671 9.56211345 2118.95276338 -75 2147 C-75.7342218 2147.24258545 -76.4684436 2147.4851709 -77.22491455 2147.73510742 C-118.33571478 2161.32355775 -159.08206032 2176.22361922 -199 2193 C-199.79092041 2193.33195374 -200.58184082 2193.66390747 -201.39672852 2194.00592041 C-228.97057596 2205.58499085 -256.4483695 2217.40564584 -283.82868958 2229.43527222 C-287.34686332 2230.98096695 -290.86634469 2232.52367486 -294.38571167 2234.06665039 C-296.85391274 2235.15078506 -299.31970037 2236.24027014 -301.78540039 2237.33007812 C-310.74677894 2241.27267942 -319.7098913 2244.88851115 -329 2248 C-329.957854 2248.32137939 -330.91570801 2248.64275879 -331.90258789 2248.97387695 C-403.85029318 2272.5869928 -479.65371946 2257.40598586 -552.48046875 2246.15234375 C-636.02445606 2233.24653873 -719.70793492 2220.38920945 -814.66357422 2209.37774658 C-817.82178579 2209.02017722 -820.97930425 2208.6570106 -824.13671875 2208.29248047 C-862.62329987 2203.87966917 -901.27209578 2202.23592778 -940 2203 C-940.88860718 2203.01720093 -941.77721436 2203.03440186 -942.69274902 2203.05212402 C-995.10319614 2204.12552649 -1047.38661642 2208.89129988 -1099.62335205 2213.01846313 C-1194.43424767 2220.50910531 -1290.46501522 2227.57758503 -1420 2212 C-1421.26183105 2211.81211914 -1422.52366211 2211.62423828 -1423.82373047 2211.43066406 C-1455.1347952 2206.67873458 -1485.99902439 2199.12283841 -1516 2189 C-1517.61237549 2188.45907715 -1517.61237549 2188.45907715 -1519.25732422 2187.90722656 C-1535.24425013 2182.4898271 -1550.65558031 2176.0172815 -1566 2169 C-1566.82000488 2168.62987793 -1567.64000977 2168.25975586 -1568.48486328 2167.87841797 C-1599.25473696 2153.98592777 -1628.53533436 2135.32757554 -1653 2112 C-1653.79148437 2111.26136719 -1654.58296875 2110.52273437 -1655.3984375 2109.76171875 C-1678.11070555 2087.96591064 -1692.18427308 2058.36296411 -1699 2028 C-1699.25394531 2026.87013672 -1699.50789063 2025.74027344 -1699.76953125 2024.57617188 C-1700.05183594 2023.31869141 -1700.33414062 2022.06121094 -1700.625 2020.765625 C-1700.77280411 2020.10828873 -1700.92060822 2019.45095245 -1701.07289124 2018.7736969 C-1701.81361436 2015.47739322 -1702.54912231 2012.18020573 -1703.27514648 2008.88061523 C-1703.55430908 2007.62450439 -1703.83347168 2006.36839355 -1704.12109375 2005.07421875 C-1704.26257339 2004.42862503 -1704.40405304 2003.78303131 -1704.54981995 2003.11787415 C-1705.34511474 1999.57669378 -1706.24780114 1996.10542404 -1707.31445312 1992.63574219 C-1711.23710257 1979.63973698 -1711.79407869 1967.3981812 -1711.625 1953.875 C-1711.61486374 1952.2499353 -1711.61486374 1952.2499353 -1711.60452271 1950.59204102 C-1711.49504675 1935.62379205 -1710.70306494 1921.63822853 -1706.80029297 1907.13037109 C-1705.30884884 1901.29654054 -1704.16449452 1895.38260775 -1702.95068359 1889.48596191 C-1701.67131769 1883.31610549 -1700.32909748 1877.15929034 -1699 1871 C-1698.65171143 1869.37940674 -1698.65171143 1869.37940674 -1698.29638672 1867.72607422 C-1687.0461162 1815.67118343 -1665.22754329 1766.26387838 -1637.68261719 1720.78417969 C-1636.0339734 1718.05621484 -1634.40943347 1715.31514372 -1632.7890625 1712.5703125 C-1625.78759065 1700.79558669 -1618.34511191 1689.33448837 -1610.75 1677.9375 C-1610.29004639 1677.24657257 -1609.83009277 1676.55564514 -1609.35620117 1675.84378052 C-1601.13464613 1663.51346844 -1592.71088984 1651.33889155 -1583.625 1639.625 C-1579.83080849 1634.70505936 -1576.07098358 1629.76500732 -1572.3737793 1624.77172852 C-1567.33547121 1617.97547029 -1562.10474818 1611.42353346 -1556.58203125 1605.015625 C-1554.16746476 1602.19558668 -1551.82657202 1599.33021832 -1549.5 1596.4375 C-1545.8513528 1591.94836086 -1542.01120297 1587.69277699 -1538.06835938 1583.46484375 C-1535.22136286 1580.39339523 -1532.57262216 1577.24005265 -1530 1573.9375 C-1523.36723342 1565.67074895 -1515.57925609 1558.41799317 -1508.03051758 1551 C-1506.41502898 1549.40879132 -1504.81262624 1547.80429964 -1503.21484375 1546.1953125 C-1500.97249715 1543.97273968 -1498.66777467 1541.85222863 -1496.3125 1539.75 C-1493.70509711 1537.42030866 -1491.09921116 1535.09047559 -1488.515625 1532.734375 C-1483.49561876 1528.16201262 -1478.37178148 1523.76703525 -1473.08984375 1519.5 C-1470.84039335 1517.67996428 -1468.60526208 1515.84781118 -1466.37890625 1514 C-1456.5606052 1505.88277956 -1446.42445238 1498.31964222 -1436 1491 C-1435.31405762 1490.51789063 -1434.62811523 1490.03578125 -1433.92138672 1489.5390625 C-1389.81080403 1458.6456532 -1342.56051865 1432.48186942 -1293.41308594 1410.52685547 C-1290.92444631 1409.41355416 -1288.43821733 1408.29566562 -1285.95410156 1407.17236328 C-1266.81384915 1398.51911881 -1247.59994948 1390.20189308 -1228.02490234 1382.57226562 C-1224.5239694 1381.20710709 -1221.02912423 1379.82696051 -1217.53535461 1378.44358826 C-1179.70139308 1363.47056988 -1141.52599004 1349.3761388 -1103.39108276 1335.19221687 C-1101.15318563 1334.35968819 -1098.91543169 1333.52677592 -1096.67773438 1332.69371033 C-1095.57620718 1332.28363031 -1095.57620718 1332.28363031 -1094.45242691 1331.86526585 C-1092.97946413 1331.31689102 -1091.50651029 1330.76849216 -1090.03356552 1330.22006893 C-1086.51176005 1328.90908128 -1082.98946261 1327.59945139 -1079.46588135 1326.29324341 C-1064.42662528 1320.71801692 -1049.43171552 1315.04590955 -1034.5078125 1309.16796875 C-1033.83823076 1308.90452982 -1033.16864902 1308.64109089 -1032.47877693 1308.36966896 C-1008.11735388 1298.77297311 -984.08843845 1288.37536771 -960.08990479 1277.91082764 C-957.14022272 1276.62528967 -954.18959552 1275.34192755 -951.23901367 1274.05845642 C-934.46391053 1266.76091658 -917.70154086 1259.43502123 -900.9552002 1252.07171631 C-845.05177525 1227.4974308 -788.88050598 1203.60058942 -731 1184 C-730.31649475 1183.76772705 -729.6329895 1183.5354541 -728.92877197 1183.29614258 C-659.26127263 1159.64771016 -586.457776 1143.67218366 -512.75 1141.4375 C-511.73054291 1141.40623016 -511.73054291 1141.40623016 -510.69049072 1141.37432861 C-500.12185958 1141.05342941 -489.57242615 1140.78842823 -479 1141 C-477.9785791 1141.01788574 -476.9571582 1141.03577148 -475.90478516 1141.05419922 C-457.48187224 1141.41491654 -439.28339841 1142.70881524 -421 1145 C-419.34339355 1145.20665283 -419.34339355 1145.20665283 -417.65332031 1145.41748047 C-392.49811432 1148.66609994 -368.37006832 1154.80513698 -344.71533203 1163.95068359 C-342.28469668 1164.88998145 -339.84565194 1165.80140142 -337.40234375 1166.70703125 C-326.25787375 1170.95242118 -316.11642566 1176.8071827 -305.88500977 1182.89599609 C-299.98789444 1186.34979165 -293.20261012 1184.4671295 -286.63061523 1183.50854492 C-274.81684573 1181.79206857 -263.11136347 1181.60571266 -251.1875 1181.625 C-250.15584717 1181.62421448 -249.12419434 1181.62342896 -248.0612793 1181.62261963 C-229.22652606 1181.63977664 -211.20342948 1182.79902015 -193 1188 C-193 942.15 -193 696.3 -193 443 C-207.19 443 -221.38 443 -236 443 C-247.00518135 440.55440415 -247.00518135 440.55440415 -250 438 C-252.64167179 432.81100185 -254.11879813 428.19380163 -254.14044189 422.40351868 C-254.14900711 421.02644493 -254.14900711 421.02644493 -254.15774536 419.62155151 C-254.15886322 418.62149078 -254.15998108 417.62143005 -254.16113281 416.59106445 C-254.16609772 415.53204422 -254.17106262 414.47302399 -254.17617798 413.38191223 C-254.19079144 409.8756953 -254.19760087 406.36952364 -254.203125 402.86328125 C-254.20887785 400.42433165 -254.21463557 397.98538207 -254.22039795 395.5464325 C-254.23090612 390.42947173 -254.23674976 385.31252667 -254.24023438 380.19555664 C-254.2457136 373.64981008 -254.26973043 367.10427211 -254.29820633 360.55859089 C-254.31686371 355.51844179 -254.32204001 350.47834257 -254.32357025 345.43816185 C-254.32659113 343.02571665 -254.33460051 340.6132722 -254.34775543 338.20086098 C-254.3648776 334.81905049 -254.36292017 331.43774487 -254.35644531 328.0559082 C-254.3656601 327.06596863 -254.37487488 326.07602905 -254.3843689 325.05609131 C-254.34205504 317.97372372 -253.70321304 311.01215167 -248.8125 305.5625 C-242.04141634 301.80078686 -235.09443961 301.71549122 -227.54492188 301.77294922 C-226.51309029 301.77270815 -225.4812587 301.77246708 -224.41815948 301.7722187 C-221.10159976 301.77370304 -217.78526914 301.78889542 -214.46875 301.8046875 C-212.41178495 301.80763066 -210.35481841 301.80966942 -208.29785156 301.81079102 C-200.69854476 301.8212467 -193.09927009 301.84916925 -185.5 301.875 C-160.0075 301.936875 -160.0075 301.936875 -134 302 C-134 256.79 -134 211.58 -134 165 C-136.97 165 -139.94 165 -143 165 C-150.14761385 164.71644213 -155.64758134 163.88680496 -161.25 159.0625 C-165.71028607 153.80573427 -166.11848005 148.03221657 -166.14526367 141.30517578 C-166.15483345 139.6628447 -166.15483345 139.6628447 -166.16459656 137.98733521 C-166.16570938 136.81846771 -166.1668222 135.64960022 -166.16796875 134.4453125 C-166.17129715 133.22979706 -166.17462555 132.01428162 -166.17805481 130.76193237 C-166.1831093 128.19497047 -166.18546359 125.62800203 -166.18530273 123.06103516 C-166.18748825 119.14604813 -166.2056574 115.23134343 -166.22460938 111.31640625 C-166.22754383 108.81770929 -166.22952828 106.319011 -166.23046875 103.8203125 C-166.24124702 102.07308395 -166.24124702 102.07308395 -166.25224304 100.29055786 C-166.22745671 91.41899956 -165.87221731 84.11598212 -159.57421875 77.40625 C-154.40998796 72.79304135 -146.87402154 72.89503739 -140.2890625 72.68359375 C-139.04511719 72.64169922 -137.80117187 72.59980469 -136.51953125 72.55664062 C-134.59173828 72.49766602 -134.59173828 72.49766602 -132.625 72.4375 C-131.31660156 72.39431641 -130.00820312 72.35113281 -128.66015625 72.30664062 C-125.44020203 72.20087571 -122.22017469 72.09878421 -119 72 C-118.65388672 71.16359985 -118.65388672 71.16359985 -118.30078125 70.31030273 C-105.15730194 38.70166364 -88.79615274 7.21233722 -56.2734375 -7.73828125 C-37.08264104 -15.13521115 -16.89858054 -11.13488375 0 0 Z "
     fill="#A1D1FE"
     transform="translate(2086,1405)"
     id="path2" />
  <path
     d="M0 0 C1.52330933 -0.00043808 1.52330933 -0.00043808 3.07739258 -0.00088501 C6.41040808 0.00050044 9.74319577 0.01602468 13.07617188 0.03173828 C15.39644244 0.0354712 17.71671459 0.03831685 20.0369873 0.04031372 C26.12626544 0.0479282 32.21544726 0.06755793 38.3046875 0.08972168 C44.52537738 0.11022722 50.7460829 0.1193255 56.96679688 0.12939453 C69.15954738 0.15080588 81.3522266 0.18491541 93.54492188 0.22705078 C93.87492187 3.85705078 94.20492188 7.48705078 94.54492188 11.22705078 C59.56492187 11.22705078 24.58492187 11.22705078 -11.45507812 11.22705078 C-11.45507812 47.52705078 -11.45507812 83.82705078 -11.45507812 121.22705078 C7.35492187 121.22705078 26.16492187 121.22705078 45.54492188 121.22705078 C45.54492188 402.05705078 45.54492188 682.88705078 45.54492188 972.22705078 C35.53181813 967.22049891 25.54059017 962.19881654 15.60742188 957.03955078 C13.8971582 956.15493164 13.8971582 956.15493164 12.15234375 955.25244141 C11.03537109 954.67300781 9.91839844 954.09357422 8.76757812 953.49658203 C7.69652832 952.94824707 6.62547852 952.39991211 5.52197266 951.83496094 C2.54492188 950.22705078 2.54492188 950.22705078 0.07958984 948.58398438 C-3.90972835 945.91863771 -3.90972835 945.91863771 -8.54492188 945.34130859 C-11.28232332 946.10735476 -13.82481547 947.14535887 -16.45507812 948.22705078 C-17.85217325 948.73795789 -19.252008 949.24140649 -20.65380859 949.73925781 C-24.84464017 951.22909894 -29.0200942 952.75768176 -33.19314575 954.29653931 C-35.92577715 955.30176335 -38.6615728 956.29792854 -41.39819336 957.29223633 C-49.61079514 960.28416515 -57.78834352 963.31570191 -65.86914062 966.64892578 C-67.10648081 967.14846326 -68.34417862 967.64711606 -69.58227539 968.14477539 C-71.81251343 969.05027961 -74.03041909 969.98701003 -76.23217773 970.9597168 C-83.17583593 973.74276097 -83.17583593 973.74276097 -86.6340332 972.34863281 C-88.76239642 970.78566883 -90.57628697 969.0808778 -92.45507812 967.22705078 C-93.83921922 966.11177045 -95.23673026 965.01289926 -96.64648438 963.93017578 C-97.35562988 963.36903076 -98.06477539 962.80788574 -98.79541016 962.22973633 C-143.01443271 927.35296607 -188.20808095 912.75193705 -244.25442886 912.90899277 C-246.29416228 912.91462418 -248.33388742 912.91745049 -250.37362671 912.92007446 C-269.90006368 912.95660266 -289.10023053 913.41341147 -308.45507812 916.22705078 C-309.69080566 916.39333984 -310.9265332 916.55962891 -312.19970703 916.73095703 C-357.41593888 922.84508379 -401.26056454 934.7521405 -444.45507812 949.22705078 C-445.6192627 949.61296387 -446.78344727 949.99887695 -447.98291016 950.39648438 C-492.43111776 965.16260475 -535.58372687 983.44217646 -578.45507812 1002.22705078 C-579.20213013 1002.55427124 -579.94918213 1002.8814917 -580.71887207 1003.21862793 C-593.63578503 1008.8770782 -606.54587016 1014.55104978 -619.45507812 1020.22705078 C-633.11842323 1026.2346355 -646.78332915 1032.23861094 -660.45507812 1038.22705078 C-661.15185669 1038.53235718 -661.84863525 1038.83766357 -662.56652832 1039.15222168 C-671.84567271 1043.21687264 -681.13851606 1047.24877084 -690.45507812 1051.22705078 C-691.11670959 1051.50961731 -691.77834106 1051.79218384 -692.46002197 1052.08331299 C-718.22538253 1063.0723908 -744.27042385 1073.28306851 -770.45507812 1083.22705078 C-771.28207214 1083.5411792 -772.10906616 1083.85530762 -772.96112061 1084.17895508 C-792.26966289 1091.50712106 -811.63853069 1098.66933964 -831.02368164 1105.79199219 C-872.40276639 1120.99660489 -913.75665257 1136.26622908 -954.45507812 1153.22705078 C-955.08232788 1153.48834778 -955.70957764 1153.74964478 -956.35583496 1154.01885986 C-965.09520282 1157.66531363 -973.78831048 1161.41151532 -982.45507812 1165.22705078 C-983.06299194 1165.49394714 -983.67090576 1165.76084351 -984.29724121 1166.03582764 C-1017.06737423 1180.43289463 -1049.70714646 1195.85710292 -1080.45507812 1214.22705078 C-1081.40286133 1214.7894043 -1082.35064453 1215.35175781 -1083.32714844 1215.93115234 C-1096.29703233 1223.64676665 -1109.0193062 1231.6770999 -1121.45507812 1240.22705078 C-1122.15793945 1240.70851563 -1122.86080078 1241.18998047 -1123.58496094 1241.68603516 C-1142.32408158 1254.56864311 -1160.14087324 1268.63707577 -1176.94335938 1283.96142578 C-1178.31604763 1285.19962048 -1179.69510606 1286.4313715 -1181.1027832 1287.62963867 C-1186.99042086 1292.66304827 -1192.46570071 1298.08536202 -1197.92797852 1303.56958008 C-1199.51467759 1305.16164044 -1201.10665554 1306.74828068 -1202.69921875 1308.33447266 C-1208.16106649 1313.79232541 -1213.47193226 1319.32353926 -1218.45507812 1325.22705078 C-1219.42836977 1326.35653187 -1220.40231104 1327.48545355 -1221.37695312 1328.61376953 C-1223.89433313 1331.54844575 -1226.40667171 1334.48743493 -1228.91748047 1337.42773438 C-1229.90887198 1338.58787338 -1230.90130717 1339.74712173 -1231.89501953 1340.90527344 C-1238.44953183 1348.54492422 -1244.77246819 1356.33149241 -1250.94238281 1364.28466797 C-1252.56547648 1366.36880825 -1254.20091708 1368.44285994 -1255.83789062 1370.51611328 C-1257.02292157 1372.02381959 -1258.20781899 1373.53163087 -1259.39257812 1375.03955078 C-1260.17918823 1376.03184692 -1260.17918823 1376.03184692 -1260.98168945 1377.04418945 C-1271.51851104 1390.50834547 -1280.98537592 1404.8162129 -1290.45507812 1419.03955078 C-1291.23945251 1420.21652023 -1291.23945251 1420.21652023 -1292.03967285 1421.41726685 C-1299.37744735 1432.44142347 -1306.57946133 1443.50717743 -1313.17041016 1454.99902344 C-1314.50331947 1457.31071678 -1315.865796 1459.60311839 -1317.23242188 1461.89501953 C-1341.083125 1502.27047787 -1360.50896424 1546.03428039 -1369.45507812 1592.22705078 C-1369.6494043 1593.20746338 -1369.84373047 1594.18787598 -1370.04394531 1595.19799805 C-1371.62168986 1604.09003695 -1371.82742307 1612.87719976 -1371.82568359 1621.8815918 C-1371.83004234 1624.39392718 -1371.86645555 1626.90447871 -1371.90429688 1629.41650391 C-1372.08816274 1655.86696887 -1363.74328761 1682.10727178 -1345.26367188 1701.41064453 C-1343.87341797 1702.80476563 -1343.87341797 1702.80476563 -1342.45507812 1704.22705078 C-1341.92519287 1704.78247559 -1341.39530762 1705.33790039 -1340.84936523 1705.91015625 C-1336.61161993 1710.29453008 -1332.10933402 1713.94979927 -1327.14257812 1717.47705078 C-1326.36205078 1718.03497314 -1325.58152344 1718.59289551 -1324.77734375 1719.16772461 C-1316.5894645 1724.9483214 -1308.11790491 1730.19311826 -1299.45507812 1735.22705078 C-1298.36525635 1735.86271973 -1298.36525635 1735.86271973 -1297.25341797 1736.51123047 C-1220.47116178 1780.99740963 -1130.51461836 1792.61753175 -849.04541016 1781.1232605 C-821.56667426 1778.84540818 -794.09197977 1776.56978701 -766.58007812 1774.72705078 C-765.46082947 1774.65123779 -764.34158081 1774.5754248 -763.18841553 1774.49731445 C-756.27939177 1774.03312683 -749.36903372 1773.6105737 -742.45507812 1773.22705078 C-741.56995544 1773.1761731 -740.68483276 1773.12529541 -739.77288818 1773.07287598 C-720.81009709 1772.01543116 -701.82958552 1772.006162 -682.84326172 1771.98681641 C-679.19276801 1771.9824577 -675.54251409 1771.96863544 -671.89208984 1771.94580078 C-646.58986538 1771.79119338 -621.63607954 1772.7203472 -596.45507812 1775.22705078 C-595.78087074 1775.293508 -595.10666336 1775.35996521 -594.41202545 1775.42843628 C-585.47012922 1776.31314686 -576.54259428 1777.30602635 -567.61931229 1778.36114502 C-565.50475763 1778.6109488 -563.38995428 1778.85856695 -561.27511597 1779.10595703 C-465.78979327 1790.30480514 -370.61934943 1804.57441359 -219.24804688 1828.02392578 C-218.05770969 1828.2097994 -216.86737251 1828.39567303 -215.64096451 1828.58717918 C-212.22367787 1829.12112218 -208.80653661 1829.65598836 -205.3894043 1830.19091797 C-204.31419651 1830.35860845 -203.23898872 1830.52629892 -202.13119888 1830.69907093 C-196.58876701 1831.56634031 -191.05094289 1832.45563237 -185.51724243 1833.3770752 C-184.38669843 1833.56355244 -183.25615442 1833.75002968 -182.09135151 1833.94215775 C-179.95417443 1834.29563161 -177.81782606 1834.65417069 -175.68253613 1835.01887131 C-167.1596389 1836.42294481 -160.49979335 1837.23148712 -152.50195312 1833.28955078 C-151.85735641 1832.97825226 -151.2127597 1832.66695374 -150.54862976 1832.34622192 C-149.15713136 1831.67264365 -147.76891557 1830.99224934 -146.38375854 1830.3057251 C-142.59693888 1828.43085393 -138.78373214 1826.61074537 -134.97460938 1824.78173828 C-134.18566788 1824.40121307 -133.39672638 1824.02068787 -132.58387756 1823.62863159 C-124.42622999 1819.70434472 -116.17408854 1816.00608635 -107.89257812 1812.35205078 C-107.15613068 1812.02672363 -106.41968323 1811.70139648 -105.66091919 1811.36621094 C-101.84567438 1809.68150502 -98.02883621 1808.00045936 -94.2109375 1806.32177734 C-90.13100397 1804.52680089 -86.05628897 1802.7202628 -81.98269653 1800.91094971 C-58.685786 1790.56701744 -35.24811502 1780.63863295 -11.61096191 1771.0982666 C-9.57979788 1770.27745138 -7.54986609 1769.45368604 -5.52050781 1768.62841797 C80.52650814 1733.65974684 170.79384141 1698.89942464 266.98242188 1685.10205078 C268.63081055 1684.8636145 268.63081055 1684.8636145 270.3125 1684.62036133 C297.49795128 1680.9970337 324.81782437 1680.88974706 352.18736649 1680.96930313 C355.0854322 1680.97716062 357.98348757 1680.98166686 360.88156128 1680.98544312 C388.30627858 1681.02702418 415.65926407 1681.33873616 443.03710938 1683.07208252 C445.60565787 1683.23080391 448.17464151 1683.37706717 450.74414062 1683.51953125 C534.27661829 1688.15629676 617.61256535 1697.49980498 914.43621826 1741.76472473 C983.30461337 1753.6457667 1052.26979488 1763.27696687 1122.12011719 1767.09317017 C1123.73082831 1767.18210228 1125.34135173 1767.27450493 1126.95166016 1767.37045288 C1143.83869533 1768.36893301 1160.72554977 1768.41458669 1177.63574219 1768.41235352 C1180.8073502 1768.41227268 1183.97881246 1768.41916563 1187.15039062 1768.43286133 C1237.40818721 1768.64627174 1287.81105202 1765.2501783 1336.54492188 1752.22705078 C1337.43888672 1751.98873535 1338.33285156 1751.75041992 1339.25390625 1751.50488281 C1372.41732845 1742.49684662 1410.26913988 1726.0674329 1428.54492188 1695.22705078 C1439.39849681 1676.09076229 1445.2223031 1655.05958576 1439.52172852 1633.22290039 C1430.6097214 1602.76024216 1402.75687089 1582.61402535 1376.40869141 1567.79052734 C1294.39466296 1523.01492307 1196.01163226 1507.38671454 1073.48242188 1491.10205078 C1072.44297424 1490.97619598 1071.40352661 1490.85034119 1070.33258057 1490.72067261 C1057.80187685 1489.21655658 1045.28941423 1488.01853748 1032.69726562 1487.16455078 C1030.20574974 1486.98325564 1027.71429394 1486.80113272 1025.22290039 1486.61816406 C1020.48370833 1486.27046663 1015.74750282 1485.9921657 1011.00170898 1485.75390625 C996.8622183 1484.84859717 988.05904609 1481.89152488 977.26953125 1472.66455078 C974.89845587 1470.68820709 972.3683512 1469.02931962 969.76757812 1467.37158203 C968.91824707 1466.82083008 968.06891602 1466.27007813 967.19384766 1465.70263672 C965.91356689 1464.87940918 965.91356689 1464.87940918 964.60742188 1464.03955078 C962.64761444 1462.7702851 960.68798634 1461.50074248 958.72851562 1460.23095703 C957.7241748 1459.58143066 956.71983398 1458.9319043 955.68505859 1458.26269531 C950.72879917 1455.0497198 945.78879073 1451.81198101 940.8477478 1448.57568359 C923.16202096 1436.99514982 905.39802717 1425.54789743 887.54492188 1414.22705078 C886.73796875 1413.71529297 885.93101562 1413.20353516 885.09960938 1412.67626953 C879.58778874 1409.18299191 874.06830822 1405.70200772 868.54492188 1402.22705078 C867.65144043 1401.664375 866.75795898 1401.10169922 865.83740234 1400.52197266 C849.51119019 1390.2486663 833.06035903 1380.19205079 816.54492188 1370.22705078 C815.61131836 1369.66356934 814.67771484 1369.10008789 813.71582031 1368.51953125 C770.5903221 1342.51384168 726.96238344 1317.35821196 682.24023438 1294.18798828 C678.47320066 1292.2356172 674.71911314 1290.26134061 670.97460938 1288.26611328 C651.78076375 1278.06849264 632.12257236 1268.90592718 612.11416626 1260.42895508 C610.81852924 1259.87790922 609.52471063 1259.322568 608.23275757 1258.76293945 C601.0273141 1255.64351312 593.95423037 1252.95626572 586.33789062 1251.02001953 C567.63804383 1246.0875872 567.63804383 1246.0875872 562.35644531 1239.49560547 C558.77453927 1233.0704744 556.6802796 1226.1804484 554.66749573 1219.14527893 C552.03817603 1210.09211508 548.32083204 1201.47390361 544.70596313 1192.77932739 C543.20556675 1189.15798692 541.73276109 1185.52588332 540.26634216 1181.89067078 C539.58506785 1180.20761887 538.89783557 1178.52696458 538.20423889 1176.84895325 C536.86252117 1173.59195123 535.59923865 1170.40864303 534.58886719 1167.03076172 C532.95626336 1161.60855051 530.9614301 1159.43345047 526.09179688 1156.46142578 C523.8415145 1155.27051381 521.57467752 1154.11052169 519.29492188 1152.97705078 C518.07667832 1152.34216719 516.8603095 1151.70367451 515.64575195 1151.06176758 C513.7801288 1150.07620314 511.91370149 1149.09288691 510.04109192 1148.12065125 C503.97947677 1144.97036364 498.10431244 1141.5293199 492.23242188 1138.03955078 C483.85556904 1133.10471296 475.390797 1128.37758228 466.83276367 1123.76538086 C458.95204791 1119.49780702 451.22830283 1114.98410538 443.50585938 1110.43798828 C436.91732226 1106.57339416 430.26876301 1102.85056171 423.54492188 1099.22705078 C414.75793495 1094.49170048 406.13342451 1089.51720245 397.53222656 1084.45336914 C389.78030027 1079.90620262 381.93432867 1075.55911748 374.02319336 1071.29589844 C368.27271344 1068.19293503 362.63154389 1064.98102613 357.08007812 1061.53173828 C353.92297059 1059.80237291 353.92297059 1059.80237291 347.54492188 1058.22705078 C347.54492188 749.01705078 347.54492188 439.80705078 347.54492188 121.22705078 C366.68492188 121.22705078 385.82492187 121.22705078 405.54492188 121.22705078 C405.54492188 84.92705078 405.54492188 48.62705078 405.54492188 11.22705078 C368.91492187 11.22705078 332.28492187 11.22705078 294.54492188 11.22705078 C294.87492187 7.59705078 295.20492187 3.96705078 295.54492188 0.22705078 C309.74894341 0.15749024 323.95292432 0.10420857 338.1570816 0.07161427 C344.75289433 0.05596936 351.34859036 0.03475217 357.94433594 0.00073242 C364.31153 -0.03190237 370.67861193 -0.04981108 377.04588318 -0.05758095 C379.4731167 -0.06311701 381.90034421 -0.07392756 384.32752991 -0.09013939 C387.73150822 -0.1119679 391.13502527 -0.1149138 394.5390625 -0.11352539 C395.53888153 -0.12431122 396.53870056 -0.13509705 397.56881714 -0.14620972 C404.85676438 -0.1141182 410.52098147 0.86048873 416.41992188 5.47705078 C421.18906168 11.64887876 420.83813218 18.59016487 420.81958008 26.06835938 C420.82469101 27.13757126 420.82980194 28.20678314 420.83506775 29.30839539 C420.84892865 32.83081717 420.84800953 36.35304252 420.84570312 39.87548828 C420.84959205 42.33257113 420.85392712 44.78965331 420.85868835 47.24673462 C420.8661431 52.39286479 420.8658647 57.53892635 420.8605957 62.68505859 C420.85480298 69.26773008 420.87173126 75.85012002 420.89494038 82.43274498 C420.90969855 87.50635409 420.91054654 92.57989572 420.90743065 97.65352249 C420.90794284 100.07991722 420.91316126 102.50631583 420.92324257 104.93268967 C420.93562934 108.33096161 420.92880129 111.72868937 420.91723633 115.12695312 C420.92870193 116.61881889 420.92870193 116.61881889 420.94039917 118.14082336 C420.89506555 124.19167362 420.27905441 129.74270805 417.54492188 135.22705078 C403.46272406 147.99927671 367.77382516 141.22705078 357.54492188 141.22705078 C358.03992187 559.50205078 358.03992187 559.50205078 358.54492188 986.22705078 C367.45492187 988.86705078 376.36492187 991.50705078 385.54492188 994.22705078 C390.90353187 996.20127552 396.16486917 998.15125237 401.41894531 1000.34716797 C403.60971758 1001.25386793 405.81340632 1002.12124673 408.02148438 1002.98486328 C426.97192868 1010.52010241 444.4969521 1020.97760952 462.13476562 1031.12939453 C468.0777931 1034.54375436 474.06032569 1037.88624844 480.04492188 1041.22705078 C488.59066923 1045.99987576 497.10835753 1050.81736091 505.59619141 1055.69238281 C510.2466437 1058.35845448 514.91172316 1060.99447095 519.59960938 1063.59423828 C583.17900008 1098.85356169 583.17900008 1098.85356169 597.54492188 1119.22705078 C597.54492188 1119.88705078 597.54492188 1120.54705078 597.54492188 1121.22705078 C598.20492187 1121.22705078 598.86492188 1121.22705078 599.54492188 1121.22705078 C601.22047338 1123.48723717 602.77169884 1125.7418982 604.29492188 1128.10205078 C604.9692627 1129.13434814 604.9692627 1129.13434814 605.65722656 1130.1875 C606.96231717 1132.19493419 608.25553015 1134.20950741 609.54492188 1136.22705078 C610.42664062 1137.59603516 610.42664062 1137.59603516 611.32617188 1138.99267578 C616.59748016 1147.46041569 620.43840624 1156.55056771 624.26367188 1165.73486328 C624.75134033 1166.90210937 625.23900879 1168.06935547 625.74145508 1169.27197266 C626.72656242 1171.63739171 627.70440858 1174.00584934 628.67456055 1176.37744141 C629.13064697 1177.47507812 629.5867334 1178.57271484 630.05664062 1179.70361328 C630.46358154 1180.69441895 630.87052246 1181.68522461 631.28979492 1182.70605469 C634.06517069 1188.28055969 638.32232463 1189.50157391 643.91992188 1191.60205078 C686.06340559 1208.00189967 727.37148162 1228.42265526 766.60351562 1250.84814453 C773.02849811 1254.51664048 779.50598972 1258.08795182 785.98242188 1261.66455078 C796.5839493 1267.53332059 807.07821852 1273.56505008 817.52539062 1279.70361328 C821.63907936 1282.11915083 825.76698499 1284.50745931 829.90820312 1286.87548828 C844.25612056 1295.081547 858.3837452 1303.58711922 872.42822266 1312.30126953 C877.32441832 1315.32658611 882.24785202 1318.30659326 887.16992188 1321.28955078 C905.42144083 1332.37615884 923.46860788 1343.77807588 941.43945312 1355.31298828 C947.23396821 1359.03167819 953.04447323 1362.72477132 958.85742188 1366.41455078 C965.81826308 1370.83737754 972.75690385 1375.29233236 979.66992188 1379.78955078 C980.48178955 1380.31709961 981.29365723 1380.84464844 982.13012695 1381.38818359 C986.37125338 1384.1478062 990.60086837 1386.92361763 994.81835938 1389.71923828 C1007.71218417 1398.31046473 1007.71218417 1398.31046473 1021.54492188 1405.22705078 C1023.2696875 1405.97341797 1023.2696875 1405.97341797 1025.02929688 1406.73486328 C1033.72522958 1410.26094496 1042.56911237 1412.13743613 1051.80273438 1413.69189453 C1053.07162003 1413.90773193 1054.34050568 1414.12356934 1055.64784241 1414.34594727 C1068.06522373 1416.42145876 1080.54376641 1417.86912511 1093.05145264 1419.27871704 C1149.63232953 1425.73186247 1206.14471864 1434.98937738 1261.54492188 1448.22705078 C1262.48885803 1448.45179077 1263.43279419 1448.67653076 1264.40533447 1448.90808105 C1298.45525486 1457.04111381 1331.74982033 1466.96013736 1364.54492188 1479.22705078 C1366.43547507 1479.92386022 1368.32609938 1480.62047672 1370.21679688 1481.31689453 C1380.57433108 1485.16282668 1390.63725192 1489.33283671 1400.54492188 1494.22705078 C1401.50857666 1494.69860596 1401.50857666 1494.69860596 1402.49169922 1495.1796875 C1407.19850265 1497.4854588 1411.87891115 1499.83989665 1416.54492188 1502.22705078 C1417.18461914 1502.55318359 1417.82431641 1502.87931641 1418.48339844 1503.21533203 C1427.86850573 1508.02525941 1436.81840209 1513.30478342 1445.54492188 1519.22705078 C1446.12628906 1519.62150391 1446.70765625 1520.01595703 1447.30664062 1520.42236328 C1477.88348953 1541.34691772 1509.35401245 1572.20923946 1516.60742188 1610.10205078 C1516.81238281 1611.28927734 1516.81238281 1611.28927734 1517.02148438 1612.50048828 C1517.6842216 1615.95265683 1518.56995752 1619.33446874 1519.48242188 1622.72705078 C1519.65636475 1623.37424072 1519.83030762 1624.02143066 1520.00952148 1624.68823242 C1520.99904146 1628.32662126 1522.05276465 1631.93856174 1523.16992188 1635.53955078 C1524.39917664 1639.52471542 1525.23684995 1643.49720104 1525.91992188 1647.60986328 C1526.52076039 1650.44368907 1526.52076039 1650.44368907 1528.05688477 1653.80541992 C1529.80874515 1658.44404697 1529.99610452 1662.67114249 1529.97851562 1667.59033203 C1529.98375748 1668.46296188 1529.98899933 1669.33559174 1529.99440002 1670.23466492 C1530.00078792 1672.07090192 1529.99952542 1673.90718003 1529.9909668 1675.7434082 C1529.98247576 1678.52191756 1530.01123215 1681.29835419 1530.04296875 1684.07666016 C1530.07605972 1692.59194328 1530.02199166 1700.05686114 1526.52270508 1707.97875977 C1525.02913596 1711.41303642 1524.49072188 1714.92112253 1523.91992188 1718.60205078 C1523.20400149 1723.04246171 1522.31044398 1727.07086061 1520.54492188 1731.22705078 C1520.0316582 1733.03019175 1519.55439162 1734.8438435 1519.10742188 1736.66455078 C1518.71490234 1738.25009766 1518.71490234 1738.25009766 1518.31445312 1739.86767578 C1517.80845857 1742.07658602 1517.34607319 1744.2960208 1516.93164062 1746.52392578 C1512.14013213 1772.03944342 1497.0424297 1797.18070168 1478.54492188 1815.22705078 C1477.65804687 1816.15517578 1476.77117188 1817.08330078 1475.85742188 1818.03955078 C1473.54492188 1820.22705078 1473.54492188 1820.22705078 1471.54492188 1820.22705078 C1471.26648437 1821.04496094 1471.26648437 1821.04496094 1470.98242188 1821.87939453 C1468.84121 1825.37631935 1465.82318327 1827.3870535 1462.54492188 1829.78955078 C1461.83722656 1830.31258789 1461.12953125 1830.835625 1460.40039062 1831.37451172 C1447.56590614 1840.70817141 1433.90667289 1848.51122942 1419.54492188 1855.22705078 C1418.36671875 1855.78650391 1417.18851563 1856.34595703 1415.97460938 1856.92236328 C1395.37746278 1866.45135153 1373.64549635 1873.23457703 1351.60986328 1878.49072266 C1348.85530987 1879.1524825 1346.11213359 1879.84737561 1343.36914062 1880.55517578 C1261.94149808 1900.98779229 1172.9529699 1899.22895634 884.70933533 1869.59236145 C881.1107375 1868.9849885 877.51191411 1868.37895564 873.91308594 1867.77294922 C873.19958355 1867.65279764 872.48608116 1867.53264606 871.75095749 1867.40885353 C863.70355799 1866.05392736 855.65572477 1864.70160029 847.60742188 1863.35205078 C846.87324036 1863.22886223 846.13905884 1863.10567368 845.38262939 1862.97875214 C766.631173 1849.77008701 687.58106289 1837.85776505 411.54492188 1811.22705078 C410.35608398 1811.1692041 409.16724609 1811.11135742 407.94238281 1811.05175781 C318.88640608 1806.78749749 237.10703533 1817.17981416 152.54492188 1845.22705078 C151.81070007 1845.46963623 151.07647827 1845.71222168 150.32000732 1845.9621582 C109.2092071 1859.55060854 68.46286155 1874.45067001 28.54492188 1891.22705078 C27.75400146 1891.55900452 26.96308105 1891.89095825 26.14819336 1892.23297119 C-1.42565409 1903.81204163 -28.90344762 1915.63269663 -56.2837677 1927.662323 C-59.80194144 1929.20801773 -63.32142282 1930.75072565 -66.84078979 1932.29370117 C-69.30899087 1933.37783584 -71.77477849 1934.46732092 -74.24047852 1935.55712891 C-83.20185706 1939.4997302 -92.16496943 1943.11556193 -101.45507812 1946.22705078 C-102.41293213 1946.54843018 -103.37078613 1946.86980957 -104.35766602 1947.20092773 C-176.3053713 1970.81404358 -252.10879759 1955.63303664 -324.93554688 1944.37939453 C-408.47953419 1931.47358951 -492.16301305 1918.61626023 -587.11865234 1907.60479736 C-590.27686392 1907.247228 -593.43438237 1906.88406138 -596.59179688 1906.51953125 C-635.078378 1902.10671995 -673.7271739 1900.46297856 -712.45507812 1901.22705078 C-713.3436853 1901.24425171 -714.23229248 1901.26145264 -715.14782715 1901.2791748 C-767.55827426 1902.35257727 -819.84169454 1907.11835066 -872.07843018 1911.24551392 C-966.88932579 1918.73615609 -1062.92009335 1925.80463581 -1192.45507812 1910.22705078 C-1193.71690918 1910.03916992 -1194.97874023 1909.85128906 -1196.27880859 1909.65771484 C-1227.58987332 1904.90578537 -1258.45410252 1897.34988919 -1288.45507812 1887.22705078 C-1290.06745361 1886.68612793 -1290.06745361 1886.68612793 -1291.71240234 1886.13427734 C-1307.69932826 1880.71687788 -1323.11065844 1874.24433228 -1338.45507812 1867.22705078 C-1339.27508301 1866.85692871 -1340.09508789 1866.48680664 -1340.93994141 1866.10546875 C-1371.70981509 1852.21297855 -1400.99041249 1833.55462633 -1425.45507812 1810.22705078 C-1426.2465625 1809.48841797 -1427.03804687 1808.74978516 -1427.85351562 1807.98876953 C-1450.56578367 1786.19296142 -1464.63935121 1756.5900149 -1471.45507812 1726.22705078 C-1471.70902344 1725.0971875 -1471.96296875 1723.96732422 -1472.22460938 1722.80322266 C-1472.50691406 1721.54574219 -1472.78921875 1720.28826172 -1473.08007812 1718.99267578 C-1473.22788223 1718.33533951 -1473.37568634 1717.67800323 -1473.52796936 1717.00074768 C-1474.26869249 1713.704444 -1475.00420043 1710.40725651 -1475.73022461 1707.10766602 C-1476.00938721 1705.85155518 -1476.2885498 1704.59544434 -1476.57617188 1703.30126953 C-1476.71765152 1702.65567581 -1476.85913116 1702.01008209 -1477.00489807 1701.34492493 C-1477.80019287 1697.80374456 -1478.70287926 1694.33247482 -1479.76953125 1690.86279297 C-1483.69218069 1677.86678776 -1484.24915682 1665.62523198 -1484.08007812 1652.10205078 C-1484.06994186 1650.47698608 -1484.06994186 1650.47698608 -1484.05960083 1648.8190918 C-1483.95012487 1633.85084283 -1483.15814307 1619.86527931 -1479.25537109 1605.35742188 C-1477.76392697 1599.52359132 -1476.61957265 1593.60965853 -1475.40576172 1587.7130127 C-1474.12639581 1581.54315627 -1472.7841756 1575.38634112 -1471.45507812 1569.22705078 C-1471.10678955 1567.60645752 -1471.10678955 1567.60645752 -1470.75146484 1565.953125 C-1459.50119433 1513.89823421 -1437.68262141 1464.49092917 -1410.13769531 1419.01123047 C-1408.48905153 1416.28326562 -1406.86451159 1413.5421945 -1405.24414062 1410.79736328 C-1398.24266877 1399.02263747 -1390.80019004 1387.56153915 -1383.20507812 1376.16455078 C-1382.74512451 1375.47362335 -1382.2851709 1374.78269592 -1381.8112793 1374.0708313 C-1373.58972425 1361.74051922 -1365.16596797 1349.56594233 -1356.08007812 1337.85205078 C-1352.28588661 1332.93211014 -1348.52606171 1327.9920581 -1344.82885742 1322.9987793 C-1339.79054934 1316.20252107 -1334.55982631 1309.65058424 -1329.03710938 1303.24267578 C-1326.62254288 1300.42263746 -1324.28165015 1297.5572691 -1321.95507812 1294.66455078 C-1318.30643093 1290.17541164 -1314.46628109 1285.91982777 -1310.5234375 1281.69189453 C-1307.67644098 1278.62044601 -1305.02770028 1275.46710343 -1302.45507812 1272.16455078 C-1295.82231154 1263.89779973 -1288.03433422 1256.64504396 -1280.4855957 1249.22705078 C-1278.8701071 1247.6358421 -1277.26770436 1246.03135042 -1275.66992188 1244.42236328 C-1273.42757528 1242.19979046 -1271.12285279 1240.07927941 -1268.76757812 1237.97705078 C-1266.16017524 1235.64735944 -1263.55428929 1233.31752637 -1260.97070312 1230.96142578 C-1255.95069688 1226.38906341 -1250.8268596 1221.99408603 -1245.54492188 1217.72705078 C-1243.29547147 1215.90701506 -1241.06034021 1214.07486196 -1238.83398438 1212.22705078 C-1229.01568332 1204.10983035 -1218.87953051 1196.546693 -1208.45507812 1189.22705078 C-1207.76913574 1188.74494141 -1207.08319336 1188.26283203 -1206.37646484 1187.76611328 C-1162.26588216 1156.87270398 -1115.01559677 1130.7089202 -1065.86816406 1108.75390625 C-1063.37952443 1107.64060495 -1060.89329546 1106.5227164 -1058.40917969 1105.39941406 C-1039.26892728 1096.74616959 -1020.05502761 1088.42894386 -1000.47998047 1080.79931641 C-996.97904753 1079.43415787 -993.48420236 1078.05401129 -989.99043274 1076.67063904 C-952.15647121 1061.69762066 -913.98106817 1047.60318958 -875.84616089 1033.41926765 C-873.60826376 1032.58673897 -871.37050981 1031.7538267 -869.1328125 1030.92076111 C-868.03128531 1030.51068109 -868.03128531 1030.51068109 -866.90750504 1030.09231663 C-865.43454225 1029.5439418 -863.96158841 1028.99554294 -862.48864365 1028.44711971 C-858.96683817 1027.13613206 -855.44454074 1025.82650217 -851.92095947 1024.52029419 C-836.8817034 1018.9450677 -821.88679365 1013.27296033 -806.96289062 1007.39501953 C-806.29330889 1007.1315806 -805.62372715 1006.86814167 -804.93385506 1006.59671974 C-780.57243201 997.00002389 -756.54351658 986.60241849 -732.54498291 976.13787842 C-729.59530084 974.85234045 -726.64467365 973.56897833 -723.6940918 972.2855072 C-706.91898865 964.98796736 -690.15661898 957.66207201 -673.41027832 950.29876709 C-617.50685338 925.72448158 -561.33558411 901.8276402 -503.45507812 882.22705078 C-502.77157288 881.99477783 -502.08806763 881.76250488 -501.3838501 881.52319336 C-431.71635075 857.87476094 -358.91285412 841.89923445 -285.20507812 839.66455078 C-284.52544006 839.64370422 -283.845802 839.62285767 -283.14556885 839.60137939 C-272.5769377 839.28048019 -262.02750427 839.01547901 -251.45507812 839.22705078 C-250.43365723 839.24493652 -249.41223633 839.26282227 -248.35986328 839.28125 C-229.93695036 839.64196732 -211.73847654 840.93586602 -193.45507812 843.22705078 C-192.35067383 843.36481934 -191.24626953 843.50258789 -190.10839844 843.64453125 C-164.95319244 846.89315072 -140.82514644 853.03218777 -117.17041016 862.17773438 C-114.7397748 863.11703223 -112.30073007 864.0284522 -109.85742188 864.93408203 C-98.71295188 869.17947196 -88.57150379 875.03423348 -78.34008789 881.12304688 C-72.44297257 884.57684243 -65.65768824 882.69418028 -59.08569336 881.7355957 C-47.27192385 880.01911935 -35.56644159 879.83276344 -23.64257812 879.85205078 C-22.61092529 879.85126526 -21.57927246 879.85047974 -20.51635742 879.84967041 C-1.68160419 879.86682743 16.3414924 881.02607093 34.54492188 886.22705078 C34.54492188 640.37705078 34.54492188 394.52705078 34.54492188 141.22705078 C20.35492187 141.22705078 6.16492187 141.22705078 -8.45507812 141.22705078 C-19.46025947 138.78145493 -19.46025947 138.78145493 -22.45507812 136.22705078 C-25.09674991 131.03805263 -26.57387625 126.42085241 -26.59552002 120.63056946 C-26.60408524 119.25349571 -26.60408524 119.25349571 -26.61282349 117.84860229 C-26.61394135 116.84854156 -26.6150592 115.84848083 -26.61621094 114.81811523 C-26.62117584 113.759095 -26.62614075 112.70007477 -26.6312561 111.60896301 C-26.64586957 108.10274608 -26.65267899 104.59657442 -26.65820312 101.09033203 C-26.66395598 98.65138243 -26.6697137 96.21243285 -26.67547607 93.77348328 C-26.68598425 88.65652252 -26.69182788 83.53957746 -26.6953125 78.42260742 C-26.70079173 71.87686087 -26.72480856 65.33132289 -26.75328445 58.78564167 C-26.77194184 53.74549257 -26.77711813 48.70539335 -26.77864838 43.66521263 C-26.78166925 41.25276743 -26.78967863 38.84032299 -26.80283356 36.42791176 C-26.81995573 33.04610127 -26.81799829 29.66479566 -26.81152344 26.28295898 C-26.82073822 25.29301941 -26.829953 24.30307983 -26.83944702 23.28314209 C-26.79713317 16.2007745 -26.15829116 9.23920245 -21.26757812 3.78955078 C-14.49649754 0.02783934 -7.5495762 -0.05752334 0 0 Z "
     fill="#000000"
     transform="translate(1858.455078125,1706.77294921875)"
     id="path4" />
  <path
     d="M0 0 C4.31684183 3.33330843 8.18159306 7.11624135 12 11 C12.86496094 11.86625 13.72992187 12.7325 14.62109375 13.625 C30.0913356 29.84341268 41.18018231 51.14811752 49 72 C49.92748047 72.01981934 50.85496094 72.03963867 51.81054688 72.06005859 C55.28475027 72.13862316 58.75855956 72.22532999 62.23242188 72.31738281 C63.72973948 72.35542835 65.22714089 72.39032167 66.72460938 72.421875 C68.88962567 72.46806201 71.05407686 72.52596017 73.21875 72.5859375 C75.1668457 72.63306885 75.1668457 72.63306885 77.15429688 72.68115234 C84.53051532 73.2927154 90.82642661 74.82642661 96.1875 80.1875 C100.80569961 87.35367181 100.29430255 95.55630479 100.265625 103.78515625 C100.26753845 105.00021347 100.2694519 106.21527069 100.27142334 107.46714783 C100.27277968 110.02635913 100.2691219 112.58557745 100.26074219 115.14477539 C100.2500259 119.05305473 100.26066138 122.9608754 100.2734375 126.86914062 C100.27211599 129.36198018 100.26955377 131.85481944 100.265625 134.34765625 C100.26967346 135.51136246 100.27372192 136.67506866 100.27789307 137.8740387 C100.22699566 146.71290918 99.39102154 153.61101902 93.625 160.6875 C87.77136847 165.41543316 79.49365003 165.02468679 72.31933594 165.00927734 C71.10549225 165.00726822 71.10549225 165.00726822 69.86712646 165.00521851 C69.25097473 165.0034964 68.634823 165.00177429 68 165 C68.00138269 166.09856213 68.00138269 166.09856213 68.00279331 167.21931744 C68.02487586 185.03807341 68.04142491 202.85682664 68.05181217 220.67559338 C68.05696886 229.29260436 68.06399965 237.90960621 68.07543945 246.52661133 C68.08540541 254.03702259 68.09185799 261.54742724 68.09408849 269.05784494 C68.09539234 273.03468254 68.09845767 277.01150121 68.10573006 280.98833275 C68.1125204 284.73191394 68.11461081 288.47546841 68.11310768 292.21905518 C68.1135137 294.24701783 68.1188932 296.27497758 68.12442017 298.30293274 C68.1230455 299.51303009 68.12167084 300.72312744 68.12025452 301.96989441 C68.12163721 303.54477772 68.12163721 303.54477772 68.12304783 305.15147686 C68 308 68 308 67 313 C103.63 313 140.26 313 178 313 C178 349.3 178 385.6 178 423 C158.86 423 139.72 423 120 423 C120.495 886.815 120.495 886.815 121 1360 C123.64 1360.66 126.28 1361.32 129 1362 C131.76220703 1363.32177734 131.76220703 1363.32177734 134.2578125 1364.8359375 C135.20140625 1365.39925781 136.145 1365.96257812 137.1171875 1366.54296875 C138.10976562 1367.14753906 139.10234375 1367.75210938 140.125 1368.375 C142.27186757 1369.65628003 144.42033986 1370.9348746 146.5703125 1372.2109375 C148.18728027 1373.1714502 148.18728027 1373.1714502 149.83691406 1374.15136719 C154.50008876 1376.87671134 159.24178992 1379.44535524 164 1382 C172.7967422 1386.73865986 181.42897718 1391.72040045 190.0390625 1396.7890625 C196.62759961 1400.65365662 203.27615886 1404.37648907 210 1408 C218.79595649 1412.74018404 227.42891494 1417.72036381 236.0390625 1422.7890625 C242.6276059 1426.65366031 249.27623395 1430.37634093 256 1434 C266.81638657 1439.83175012 277.51593646 1445.88970592 287.9909668 1452.31762695 C291.00238292 1454.09498763 291.00238292 1454.09498763 294.45629883 1455.32885742 C303.52417775 1459.21949052 306.80541818 1464.14278583 310.57421875 1473.20703125 C312.36121667 1477.71348304 314.02930053 1482.25739609 315.6875 1486.8125 C316.58677562 1489.17680908 317.49068201 1491.53936192 318.39916992 1493.90014648 C320.16871726 1498.51227282 321.91580209 1503.13182768 323.64355469 1507.75976562 C326.52203419 1515.43667711 329.64040345 1523.0034269 332.8125 1530.5625 C333.65791386 1532.582313 334.49847902 1534.60416927 335.33203125 1536.62890625 C335.82280151 1537.8056189 335.82280151 1537.8056189 336.32348633 1539.00610352 C337 1541 337 1541 337 1544 C336.1042627 1543.72953857 336.1042627 1543.72953857 335.19042969 1543.45361328 C299.98829015 1532.85475273 264.5225562 1524.74602371 228.30839539 1518.46813965 C223.41005262 1517.6152679 218.52093328 1516.72589939 213.63720703 1515.79272461 C198.74767602 1512.95313418 183.85105467 1510.57586021 168.83016968 1508.54650879 C162.62574181 1507.70772239 156.42427065 1506.84758345 150.22265625 1505.98828125 C148.99839432 1505.81900116 147.77413239 1505.64972107 146.51277161 1505.47531128 C135.88849295 1503.99963886 125.28460648 1502.40857776 114.6875 1500.75 C113.89938934 1500.6266629 113.11127869 1500.50332581 112.29928589 1500.37625122 C111.52303864 1500.25474701 110.74679138 1500.1332428 109.94702148 1500.00805664 C108.43084301 1499.7708926 106.91464872 1499.53382963 105.3984375 1499.296875 C104.31433342 1499.12737587 104.31433342 1499.12737587 103.20832825 1498.95445251 C96.41950569 1497.89876774 89.61731792 1496.94648876 82.8125 1496 C50.0369277 1491.34971741 17.86883076 1484.97214966 -14.40332031 1477.59301758 C-16.69918842 1477.06869794 -18.99581469 1476.54794689 -21.29296875 1476.02929688 C-36.08038518 1472.6771655 -50.58535926 1468.70655783 -65 1464 C-66.23733887 1463.59620117 -67.47467773 1463.19240234 -68.74951172 1462.77636719 C-119.07927946 1446.25672766 -161.06812518 1421.84947051 -199.95141602 1385.81347656 C-201.81747893 1384.08611716 -203.6942237 1382.37484448 -205.58398438 1380.6730957 C-214.0029373 1373.07332945 -222.03972347 1365.11325511 -230.04711914 1357.08325195 C-232.32259584 1354.80238023 -234.60341717 1352.52695025 -236.88476562 1350.25195312 C-238.35709181 1348.77896659 -239.829108 1347.30567014 -241.30078125 1345.83203125 C-242.30568352 1344.83016533 -242.30568352 1344.83016533 -243.33088684 1343.80805969 C-246.47340268 1340.65010103 -249.51421214 1337.45256565 -252.42285156 1334.07714844 C-256.38826273 1329.48813694 -260.64110805 1325.21510646 -264.93359375 1320.93359375 C-265.77036148 1320.09586929 -266.60712921 1319.25814484 -267.46925354 1318.39503479 C-269.22868104 1316.63493065 -270.98935653 1314.87607323 -272.7512207 1313.1184082 C-275.42969411 1310.44529028 -278.10278873 1307.76687749 -280.77539062 1305.08789062 C-282.49447115 1303.36947097 -284.21386189 1301.65136158 -285.93359375 1299.93359375 C-286.72342148 1299.14174179 -287.51324921 1298.34988983 -288.32701111 1297.53404236 C-293.05861924 1292.82212083 -297.91690573 1288.32997736 -303 1284 C-304.6692439 1282.56549352 -306.33647974 1281.12863995 -308 1279.6875 C-308.763125 1279.03136719 -309.52625 1278.37523438 -310.3125 1277.69921875 C-312 1276 -312 1276 -312 1274 C-310.94127686 1273.61368408 -309.88255371 1273.22736816 -308.79174805 1272.8293457 C-305.59237836 1271.66174593 -302.39340587 1270.49306358 -299.19458008 1269.32397461 C-295.50142301 1267.97432647 -291.80709628 1266.62794275 -288.11206055 1265.28344727 C-278.94370397 1261.94206757 -269.79669999 1258.55912496 -260.6953125 1255.0390625 C-258.32322021 1254.12920153 -255.95067789 1253.22052327 -253.57803345 1252.31210327 C-252.07393355 1251.73144943 -250.5723961 1251.14411158 -249.07357788 1250.54995728 C-246.98863444 1249.72376715 -244.89614142 1248.92041834 -242.80078125 1248.12109375 C-241.62684814 1247.6614624 -240.45291504 1247.20183105 -239.2434082 1246.72827148 C-232.99221305 1245.32463466 -227.8097561 1248.99488671 -222.43359375 1251.88671875 C-221.71824966 1252.26681595 -221.00290558 1252.64691315 -220.2658844 1253.03852844 C-217.98742713 1254.2505384 -215.71245064 1255.46892321 -213.4375 1256.6875 C-211.93707116 1257.4867454 -210.43642185 1258.28557707 -208.93554688 1259.08398438 C-200.27566303 1263.69549533 -191.63855444 1268.34847069 -183 1273 C-182.67 992.5 -182.34 712 -182 423 C-200.81 423 -219.62 423 -239 423 C-239 386.7 -239 350.4 -239 313 C-204.02 313 -169.04 313 -133 313 C-133.33 311.35 -133.66 309.7 -134 308 C-134.08676397 305.99143825 -134.1220196 303.98032848 -134.12025452 301.96989441 C-134.12231651 300.15474838 -134.12231651 300.15474838 -134.12442017 298.30293274 C-134.12082489 296.98375351 -134.11722961 295.66457428 -134.11352539 294.30541992 C-134.11324318 292.89583335 -134.11340192 291.48624664 -134.1139679 290.07666016 C-134.11425454 286.25681721 -134.10837923 282.43700573 -134.10139394 278.6171701 C-134.09513834 274.62265543 -134.09455485 270.62814002 -134.09336853 266.63362122 C-134.09026173 259.07247176 -134.0820571 251.51133679 -134.07201904 243.9501937 C-134.06083771 235.34081187 -134.05534236 226.73142935 -134.05032361 218.12204206 C-134.03987395 200.4146865 -134.0222871 182.70734442 -134 165 C-134.9248394 165.00197136 -134.9248394 165.00197136 -135.86836243 165.00398254 C-136.67790878 165.00500473 -137.48745514 165.00602692 -138.3215332 165.00708008 C-139.1237178 165.00839432 -139.9259024 165.00970856 -140.75239563 165.01106262 C-148.61191158 164.97237839 -155.07655761 164.37851983 -161.25 159.0625 C-165.71028607 153.80573427 -166.11848005 148.03221657 -166.14526367 141.30517578 C-166.15164352 140.21028839 -166.15802338 139.115401 -166.16459656 137.98733521 C-166.16626579 136.23403397 -166.16626579 136.23403397 -166.16796875 134.4453125 C-166.17129715 133.22979706 -166.17462555 132.01428162 -166.17805481 130.76193237 C-166.1831093 128.19497047 -166.18546359 125.62800203 -166.18530273 123.06103516 C-166.18748825 119.14604813 -166.2056574 115.23134343 -166.22460938 111.31640625 C-166.22754383 108.81770929 -166.22952828 106.319011 -166.23046875 103.8203125 C-166.23765427 102.65549347 -166.24483978 101.49067444 -166.25224304 100.29055786 C-166.22745671 91.41899956 -165.87221731 84.11598212 -159.57421875 77.40625 C-154.40998796 72.79304135 -146.87402154 72.89503739 -140.2890625 72.68359375 C-139.04511719 72.64169922 -137.80117187 72.59980469 -136.51953125 72.55664062 C-134.59173828 72.49766602 -134.59173828 72.49766602 -132.625 72.4375 C-131.31660156 72.39431641 -130.00820312 72.35113281 -128.66015625 72.30664062 C-125.44020203 72.20087571 -122.22017469 72.09878421 -119 72 C-118.76925781 71.4423999 -118.53851562 70.8847998 -118.30078125 70.31030273 C-105.15730194 38.70166364 -88.79615274 7.21233722 -56.2734375 -7.73828125 C-37.08264104 -15.13521115 -16.89858054 -11.13488375 0 0 Z "
     fill="#FA327C"
     transform="translate(2086,1405)"
     id="path6" />
  <path
     d="M0 0 C4.31684183 3.33330843 8.18159306 7.11624135 12 11 C12.86496094 11.86625 13.72992187 12.7325 14.62109375 13.625 C30.0913356 29.84341268 41.18018231 51.14811752 49 72 C49.92748047 72.01981934 50.85496094 72.03963867 51.81054688 72.06005859 C55.28475027 72.13862316 58.75855956 72.22532999 62.23242188 72.31738281 C63.72973948 72.35542835 65.22714089 72.39032167 66.72460938 72.421875 C68.88962567 72.46806201 71.05407686 72.52596017 73.21875 72.5859375 C75.1668457 72.63306885 75.1668457 72.63306885 77.15429688 72.68115234 C84.53051532 73.2927154 90.82642661 74.82642661 96.1875 80.1875 C100.80569961 87.35367181 100.29430255 95.55630479 100.265625 103.78515625 C100.26753845 105.00021347 100.2694519 106.21527069 100.27142334 107.46714783 C100.27277968 110.02635913 100.2691219 112.58557745 100.26074219 115.14477539 C100.2500259 119.05305473 100.26066138 122.9608754 100.2734375 126.86914062 C100.27211599 129.36198018 100.26955377 131.85481944 100.265625 134.34765625 C100.26967346 135.51136246 100.27372192 136.67506866 100.27789307 137.8740387 C100.22699566 146.71290918 99.39102154 153.61101902 93.625 160.6875 C87.77136847 165.41543316 79.49365003 165.02468679 72.31933594 165.00927734 C71.10549225 165.00726822 71.10549225 165.00726822 69.86712646 165.00521851 C69.25097473 165.0034964 68.634823 165.00177429 68 165 C68.00138269 166.09856213 68.00138269 166.09856213 68.00279331 167.21931744 C68.02487586 185.03807341 68.04142491 202.85682664 68.05181217 220.67559338 C68.05696886 229.29260436 68.06399965 237.90960621 68.07543945 246.52661133 C68.08540541 254.03702259 68.09185799 261.54742724 68.09408849 269.05784494 C68.09539234 273.03468254 68.09845767 277.01150121 68.10573006 280.98833275 C68.1125204 284.73191394 68.11461081 288.47546841 68.11310768 292.21905518 C68.1135137 294.24701783 68.1188932 296.27497758 68.12442017 298.30293274 C68.1230455 299.51303009 68.12167084 300.72312744 68.12025452 301.96989441 C68.12163721 303.54477772 68.12163721 303.54477772 68.12304783 305.15147686 C68 308 68 308 67 313 C103.63 313 140.26 313 178 313 C178 349.3 178 385.6 178 423 C158.86 423 139.72 423 120 423 C120 732.21 120 1041.42 120 1360 C105.02908675 1357.69678258 105.02908675 1357.69678258 98.1796875 1356.30859375 C97.05265915 1356.08333763 97.05265915 1356.08333763 95.90286255 1355.85353088 C94.34511881 1355.54152104 92.78765206 1355.22812499 91.23046875 1354.91333008 C88.84448189 1354.43133501 86.45747809 1353.95463497 84.0703125 1353.47851562 C82.54420923 1353.17218176 81.01816524 1352.86555234 79.4921875 1352.55859375 C78.78287079 1352.41691269 78.07355408 1352.27523163 77.34274292 1352.1292572 C74.49002988 1351.55045629 71.76510024 1350.92170008 69 1350 C69 1044.42 69 738.84 69 424 C3 424 -63 424 -131 424 C-131 713.41 -131 1002.82 -131 1301 C-141.02842907 1295.98578546 -151.04259546 1290.96347571 -161 1285.8125 C-162.14855469 1285.22275391 -163.29710937 1284.63300781 -164.48046875 1284.02539062 C-165.60066406 1283.44595703 -166.72085937 1282.86652344 -167.875 1282.26953125 C-169.35613281 1281.50539917 -169.35613281 1281.50539917 -170.8671875 1280.72583008 C-171.90101562 1280.15630615 -172.93484375 1279.58678223 -174 1279 C-174.6670394 1278.74477187 -175.3340788 1278.48954373 -176.02133152 1278.22658141 C-178.53220238 1277.07943615 -180.13031625 1276.04757837 -182 1274 C-183.23184971 1269.41018776 -183.06003494 1264.81153814 -182.98438263 1260.09437847 C-182.99029956 1258.63721396 -182.99972811 1257.18006021 -183.01235461 1255.72293839 C-183.03696471 1251.69984998 -183.01146435 1247.67837242 -182.97812954 1243.65540376 C-182.95070464 1239.28619604 -182.96961275 1234.91715518 -182.98274946 1230.54791528 C-182.99936029 1222.88425796 -182.9861547 1215.2210968 -182.9536438 1207.55749702 C-182.90543548 1196.16204884 -182.90295056 1184.7669146 -182.90997971 1173.37138304 C-182.92050052 1154.20403366 -182.89372346 1135.03690461 -182.84584045 1115.86961937 C-182.79853756 1096.88597716 -182.76771965 1077.90242668 -182.75901794 1058.91872597 C-182.75846803 1057.73928856 -182.75791811 1056.55985114 -182.75735153 1055.34467321 C-182.75464494 1049.35513986 -182.75223384 1043.36560644 -182.74993652 1037.37607292 C-182.73312401 994.9294451 -182.67919951 952.4829372 -182.60351562 910.03637695 C-182.53006512 868.79484699 -182.47338402 827.55334982 -182.43945312 786.31176758 C-182.43840092 785.04098363 -182.43734871 783.77019968 -182.43626461 782.46090712 C-182.42571664 769.69941213 -182.4155101 756.93791688 -182.40555374 744.17642141 C-182.38526291 718.17875449 -182.36269289 692.18108971 -182.33874512 666.1834259 C-182.3376468 664.98804128 -182.33654848 663.79265666 -182.33541688 662.56104826 C-182.26178594 582.7073148 -182.13440746 502.85365113 -182 423 C-200.81 423 -219.62 423 -239 423 C-239 386.7 -239 350.4 -239 313 C-204.02 313 -169.04 313 -133 313 C-133.33 311.35 -133.66 309.7 -134 308 C-134.08676397 305.99143825 -134.1220196 303.98032848 -134.12025452 301.96989441 C-134.12231651 300.15474838 -134.12231651 300.15474838 -134.12442017 298.30293274 C-134.11902725 296.32416389 -134.11902725 296.32416389 -134.11352539 294.30541992 C-134.11324318 292.89583335 -134.11340192 291.48624664 -134.1139679 290.07666016 C-134.11425454 286.25681721 -134.10837923 282.43700573 -134.10139394 278.6171701 C-134.09513834 274.62265543 -134.09455485 270.62814002 -134.09336853 266.63362122 C-134.09026173 259.07247176 -134.0820571 251.51133679 -134.07201904 243.9501937 C-134.06083771 235.34081187 -134.05534236 226.73142935 -134.05032361 218.12204206 C-134.03987395 200.4146865 -134.0222871 182.70734442 -134 165 C-134.9248394 165.00197136 -134.9248394 165.00197136 -135.86836243 165.00398254 C-136.67790878 165.00500473 -137.48745514 165.00602692 -138.3215332 165.00708008 C-139.1237178 165.00839432 -139.9259024 165.00970856 -140.75239563 165.01106262 C-148.61191158 164.97237839 -155.07655761 164.37851983 -161.25 159.0625 C-165.71028607 153.80573427 -166.11848005 148.03221657 -166.14526367 141.30517578 C-166.15164352 140.21028839 -166.15802338 139.115401 -166.16459656 137.98733521 C-166.16570938 136.81846771 -166.1668222 135.64960022 -166.16796875 134.4453125 C-166.17296135 132.62203934 -166.17296135 132.62203934 -166.17805481 130.76193237 C-166.1831093 128.19497047 -166.18546359 125.62800203 -166.18530273 123.06103516 C-166.18748825 119.14604813 -166.2056574 115.23134343 -166.22460938 111.31640625 C-166.22754383 108.81770929 -166.22952828 106.319011 -166.23046875 103.8203125 C-166.23765427 102.65549347 -166.24483978 101.49067444 -166.25224304 100.29055786 C-166.22745671 91.41899956 -165.87221731 84.11598212 -159.57421875 77.40625 C-154.40998796 72.79304135 -146.87402154 72.89503739 -140.2890625 72.68359375 C-139.04511719 72.64169922 -137.80117187 72.59980469 -136.51953125 72.55664062 C-135.23433594 72.51732422 -133.94914062 72.47800781 -132.625 72.4375 C-131.31660156 72.39431641 -130.00820312 72.35113281 -128.66015625 72.30664062 C-125.44020203 72.20087571 -122.22017469 72.09878421 -119 72 C-118.76925781 71.4423999 -118.53851562 70.8847998 -118.30078125 70.31030273 C-105.15730194 38.70166364 -88.79615274 7.21233722 -56.2734375 -7.73828125 C-37.08264104 -15.13521115 -16.89858054 -11.13488375 0 0 Z "
     fill="#9867B5"
     transform="translate(2086,1405)"
     id="path8" />
  <path
     d="M0 0 C4.31684183 3.33330843 8.18159306 7.11624135 12 11 C12.86496094 11.86625 13.72992187 12.7325 14.62109375 13.625 C30.0913356 29.84341268 41.18018231 51.14811752 49 72 C49.92748047 72.01981934 50.85496094 72.03963867 51.81054688 72.06005859 C55.28475027 72.13862316 58.75855956 72.22532999 62.23242188 72.31738281 C63.72973948 72.35542835 65.22714089 72.39032167 66.72460938 72.421875 C68.88962567 72.46806201 71.05407686 72.52596017 73.21875 72.5859375 C75.1668457 72.63306885 75.1668457 72.63306885 77.15429688 72.68115234 C84.53051532 73.2927154 90.82642661 74.82642661 96.1875 80.1875 C100.80569961 87.35367181 100.29430255 95.55630479 100.265625 103.78515625 C100.26753845 105.00021347 100.2694519 106.21527069 100.27142334 107.46714783 C100.27277968 110.02635913 100.2691219 112.58557745 100.26074219 115.14477539 C100.2500259 119.05305473 100.26066138 122.9608754 100.2734375 126.86914062 C100.27211599 129.36198018 100.26955377 131.85481944 100.265625 134.34765625 C100.26967346 135.51136246 100.27372192 136.67506866 100.27789307 137.8740387 C100.22699566 146.71290918 99.39102154 153.61101902 93.625 160.6875 C87.77136847 165.41543316 79.49365003 165.02468679 72.31933594 165.00927734 C71.10549225 165.00726822 71.10549225 165.00726822 69.86712646 165.00521851 C69.25097473 165.0034964 68.634823 165.00177429 68 165 C68.00138269 166.09856213 68.00138269 166.09856213 68.00279331 167.21931744 C68.02487586 185.03807341 68.04142491 202.85682664 68.05181217 220.67559338 C68.05696886 229.29260436 68.06399965 237.90960621 68.07543945 246.52661133 C68.08540541 254.03702259 68.09185799 261.54742724 68.09408849 269.05784494 C68.09539234 273.03468254 68.09845767 277.01150121 68.10573006 280.98833275 C68.1125204 284.73191394 68.11461081 288.47546841 68.11310768 292.21905518 C68.1135137 294.24701783 68.1188932 296.27497758 68.12442017 298.30293274 C68.1230455 299.51303009 68.12167084 300.72312744 68.12025452 301.96989441 C68.12163721 303.54477772 68.12163721 303.54477772 68.12304783 305.15147686 C68 308 68 308 67 313 C1 313 -65 313 -133 313 C-133.79509813 309.02450937 -134.12375277 305.9544086 -134.12025452 301.96989441 C-134.12162918 300.75979706 -134.12300385 299.54969971 -134.12442017 298.30293274 C-134.12082489 296.98375351 -134.11722961 295.66457428 -134.11352539 294.30541992 C-134.11324318 292.89583335 -134.11340192 291.48624664 -134.1139679 290.07666016 C-134.11425454 286.25681721 -134.10837923 282.43700573 -134.10139394 278.6171701 C-134.09513834 274.62265543 -134.09455485 270.62814002 -134.09336853 266.63362122 C-134.09026173 259.07247176 -134.0820571 251.51133679 -134.07201904 243.9501937 C-134.06083771 235.34081187 -134.05534236 226.73142935 -134.05032361 218.12204206 C-134.03987395 200.4146865 -134.0222871 182.70734442 -134 165 C-134.9248394 165.00197136 -134.9248394 165.00197136 -135.86836243 165.00398254 C-136.67790878 165.00500473 -137.48745514 165.00602692 -138.3215332 165.00708008 C-139.1237178 165.00839432 -139.9259024 165.00970856 -140.75239563 165.01106262 C-148.61191158 164.97237839 -155.07655761 164.37851983 -161.25 159.0625 C-165.71028607 153.80573427 -166.11848005 148.03221657 -166.14526367 141.30517578 C-166.15164352 140.21028839 -166.15802338 139.115401 -166.16459656 137.98733521 C-166.16570938 136.81846771 -166.1668222 135.64960022 -166.16796875 134.4453125 C-166.17129715 133.22979706 -166.17462555 132.01428162 -166.17805481 130.76193237 C-166.1831093 128.19497047 -166.18546359 125.62800203 -166.18530273 123.06103516 C-166.18748825 119.14604813 -166.2056574 115.23134343 -166.22460938 111.31640625 C-166.22754383 108.81770929 -166.22952828 106.319011 -166.23046875 103.8203125 C-166.23765427 102.65549347 -166.24483978 101.49067444 -166.25224304 100.29055786 C-166.22745671 91.41899956 -165.87221731 84.11598212 -159.57421875 77.40625 C-154.40998796 72.79304135 -146.87402154 72.89503739 -140.2890625 72.68359375 C-139.04511719 72.64169922 -137.80117187 72.59980469 -136.51953125 72.55664062 C-135.23433594 72.51732422 -133.94914062 72.47800781 -132.625 72.4375 C-131.31660156 72.39431641 -130.00820312 72.35113281 -128.66015625 72.30664062 C-125.44020203 72.20087571 -122.22017469 72.09878421 -119 72 C-118.76925781 71.4423999 -118.53851562 70.8847998 -118.30078125 70.31030273 C-105.15730194 38.70166364 -88.79615274 7.21233722 -56.2734375 -7.73828125 C-37.08264104 -15.13521115 -16.89858054 -11.13488375 0 0 Z "
     fill="#FD327C"
     transform="translate(2086,1405)"
     id="path10" />
  <path
     d="M0 0 C4.31684183 3.33330843 8.18159306 7.11624135 12 11 C12.86496094 11.86625 13.72992187 12.7325 14.62109375 13.625 C30.6610879 30.44071929 43.44945088 53.63631535 50.1875 75.8125 C50.53167969 76.93269531 50.87585937 78.05289062 51.23046875 79.20703125 C52 82 52 82 52 84 C63.22 84 74.44 84 86 84 C86 104.46 86 124.92 86 146 C7.46 146 -71.08 146 -152 146 C-152 125.54 -152 105.08 -152 84 C-142.1 84 -132.2 84 -122 84 C-119.76353897 76.54736855 -119.76353897 76.54736855 -117.625 69.06640625 C-115.93087297 63.44089505 -113.55006982 58.22113674 -111 52.9375 C-110.51869629 51.9381543 -110.03739258 50.93880859 -109.54150391 49.90917969 C-97.18713695 24.79893888 -79.86338406 1.35426379 -53 -9 C-34.48882982 -14.54011528 -15.97144861 -10.52397409 0 0 Z "
     fill="#9766B4"
     transform="translate(2086,1405)"
     id="path12" />
  <path
     d="M0 0 C4.55356095 0.09422746 9.10663297 0.20046632 13.65966797 0.31738281 C15.20549035 0.35543978 16.75139428 0.39033132 18.29736328 0.421875 C20.53187018 0.46803654 22.76582671 0.5259398 25 0.5859375 C26.02081665 0.60326431 26.02081665 0.60326431 27.06225586 0.62094116 C35.11151187 0.86323919 42.34785585 2.34785585 48.1875 8.1875 C52.80569961 15.35367181 52.29430255 23.55630479 52.265625 31.78515625 C52.26849518 33.60774208 52.26849518 33.60774208 52.27142334 35.46714783 C52.27277968 38.02635913 52.2691219 40.58557745 52.26074219 43.14477539 C52.2500259 47.05305473 52.26066138 50.9608754 52.2734375 54.86914062 C52.27211599 57.36198018 52.26955377 59.85481944 52.265625 62.34765625 C52.26967346 63.51136246 52.27372192 64.67506866 52.27789307 65.8740387 C52.22699566 74.71290918 51.39102154 81.61101902 45.625 88.6875 C38.82889184 94.17666428 28.25320941 93.13311628 20 93 C19.82715323 91.52154276 19.6621554 90.04216801 19.5 88.5625 C19.4071875 87.73878906 19.314375 86.91507813 19.21875 86.06640625 C18.93250089 82.05380714 19 78.02279631 19 74 C25.27 74 31.54 74 38 74 C38 53.54 38 33.08 38 12 C26.78 12 15.56 12 4 12 C0 2 0 2 0 0 Z "
     fill="#010002"
     transform="translate(2134,1477)"
     id="path14" />
  <path
     d="M0 0 C0.495 0.99 0.495 0.99 1 2 C-0.32 5.3 -1.64 8.6 -3 12 C-12.9 12 -22.8 12 -33 12 C-33 32.46 -33 52.92 -33 74 C-26.73 74 -20.46 74 -14 74 C-14 84.125 -14 84.125 -14.5 88.5625 C-14.63921875 89.83287109 -14.63921875 89.83287109 -14.78125 91.12890625 C-14.8534375 91.74636719 -14.925625 92.36382813 -15 93 C-34.98059244 93.32226762 -34.98059244 93.32226762 -42.25 87.0625 C-46.71028607 81.80573427 -47.11848005 76.03221657 -47.14526367 69.30517578 C-47.15164352 68.21028839 -47.15802338 67.115401 -47.16459656 65.98733521 C-47.16570938 64.81846771 -47.1668222 63.64960022 -47.16796875 62.4453125 C-47.17129715 61.22979706 -47.17462555 60.01428162 -47.17805481 58.76193237 C-47.1831093 56.19497047 -47.18546359 53.62800203 -47.18530273 51.06103516 C-47.18748825 47.14604813 -47.2056574 43.23134343 -47.22460938 39.31640625 C-47.22754383 36.81770929 -47.22952828 34.319011 -47.23046875 31.8203125 C-47.23765427 30.65549347 -47.24483978 29.49067444 -47.25224304 28.29055786 C-47.22745671 19.41899956 -46.87221731 12.11598212 -40.57421875 5.40625 C-35.40998796 0.79304135 -27.87402154 0.89503739 -21.2890625 0.68359375 C-20.04511719 0.64169922 -18.80117187 0.59980469 -17.51953125 0.55664062 C-16.23433594 0.51732422 -14.94914062 0.47800781 -13.625 0.4375 C-12.31660156 0.39431641 -11.00820312 0.35113281 -9.66015625 0.30664062 C-6.44020203 0.20087571 -3.22017469 0.09878421 0 0 Z "
     fill="#010002"
     transform="translate(1967,1477)"
     id="path16" />
  <path
     d="M0 0 C66 0 132 0 200 0 C200 2.31 200 4.62 200 7 C199.01 6.01 199.01 6.01 198 5 C195.42938689 4.35232207 195.42938689 4.35232207 193 4 C193.33 4.99 193.66 5.98 194 7 C192.02 6.505 192.02 6.505 190 6 C190 6.66 190 7.32 190 8 C189.08540103 7.99907821 188.17080206 7.99815641 187.22848797 7.99720669 C164.99582166 7.97514251 142.76315724 7.95858407 120.53048229 7.94818783 C109.77902522 7.94302693 99.02757544 7.93598814 88.27612305 7.92456055 C78.90745915 7.91460743 69.53880054 7.90814507 60.1701315 7.90591151 C55.20743583 7.90460547 50.24475528 7.90152634 45.28206444 7.89426994 C40.6142973 7.88749986 35.94655156 7.88538507 31.27877998 7.88689232 C29.56266539 7.88661644 27.84655011 7.88461716 26.13043976 7.88079453 C23.79304389 7.87584188 21.45572954 7.87700757 19.11833191 7.87974548 C17.15353016 7.87836279 17.15353016 7.87836279 15.14903545 7.87695217 C11.97164181 7.85448311 11.97164181 7.85448311 9 9 C8.01 8.34 7.02 7.68 6 7 C3.03 9.475 3.03 9.475 0 12 C0 8.04 0 4.08 0 0 Z "
     fill="#BB265D"
     transform="translate(1955,1829)"
     id="path18" />
  <path
     d="M0 0 C99.66 0 199.32 0 302 0 C302 2.97 302 5.94 302 9 C285.17 9 268.34 9 251 9 C251 6.36 251 3.72 251 1 C185 1 119 1 51 1 C51 3.64 51 6.28 51 9 C25.755 9.495 25.755 9.495 0 10 C0 6.7 0 3.4 0 0 Z "
     fill="#8B4682"
     transform="translate(1904,1828)"
     id="path20" />
  <path
     d="M0 0 C66 0 132 0 200 0 C200 1.32 200 2.64 200 4 C101 4.495 101 4.495 0 5 C0 3.35 0 1.7 0 0 Z "
     fill="#C72F6D"
     transform="translate(1953,1551)"
     id="path22" />
  <path
     d="M0 0 C0.70382087 -0.00297112 1.40764173 -0.00594224 2.13279051 -0.0090034 C4.48489637 -0.01765674 6.83695115 -0.01919575 9.18907166 -0.02069092 C10.87787992 -0.02532127 12.56668715 -0.03034622 14.25549316 -0.03573608 C18.83796375 -0.04883628 23.42041971 -0.05529973 28.00290608 -0.05974674 C30.86520474 -0.06267971 33.72749942 -0.06678482 36.58979607 -0.07125092 C45.54389332 -0.08491604 54.49798145 -0.09458901 63.45208842 -0.09845281 C73.79205845 -0.10293924 84.13189667 -0.12051837 94.47182661 -0.1494534 C102.46428324 -0.17104453 110.45670269 -0.18115562 118.44918817 -0.18249393 C123.2235324 -0.18354327 127.99775255 -0.1894793 132.77206612 -0.20731354 C137.25939252 -0.2237511 141.74650095 -0.22597084 146.23384666 -0.21717453 C147.88182279 -0.21640199 149.52981044 -0.22077538 151.17775726 -0.23063278 C153.42500046 -0.24328851 155.67146402 -0.23751108 157.91870117 -0.22705078 C159.17690705 -0.22851734 160.43511293 -0.2299839 161.73144627 -0.2314949 C165.09424192 0.16375933 166.46719792 0.84672384 168.89585876 3.14044189 C167.98125979 3.1395201 167.06666082 3.13859831 166.12434673 3.13764858 C143.89168043 3.1155844 121.659016 3.09902596 99.42634106 3.08862972 C88.67488398 3.08346883 77.9234342 3.07643003 67.17198181 3.06500244 C57.80331792 3.05504933 48.4346593 3.04858696 39.06599027 3.0463534 C34.10329459 3.04504737 29.14061404 3.04196824 24.1779232 3.03471184 C19.51015607 3.02794175 14.84241033 3.02582697 10.17463875 3.02733421 C8.45852416 3.02705833 6.74240888 3.02505906 5.02629852 3.02123642 C2.68890266 3.01628377 0.3515883 3.01744947 -1.98580933 3.02018738 C-3.95061107 3.01880469 -3.95061107 3.01880469 -5.95510578 3.01739407 C-9.13249943 2.994925 -9.13249943 2.994925 -12.10414124 4.14044189 C-12.10414124 3.15044189 -12.10414124 2.16044189 -12.10414124 1.14044189 C-8.01846674 0.16428267 -4.19533671 0.00991569 0 0 Z "
     fill="#D72B6A"
     transform="translate(1976.1041412353516,1833.8595581054688)"
     id="path24" />
  <path
     d="M0 0 C16.83 0 33.66 0 51 0 C51 2.97 51 5.94 51 9 C25.755 9.495 25.755 9.495 0 10 C0 6.7 0 3.4 0 0 Z "
     fill="#744E89"
     transform="translate(1904,1828)"
     id="path26" />
  <path
     d="M0 0 C66 0 132 0 200 0 C200 2.31 200 4.62 200 7 C199.01 6.01 199.01 6.01 198 5 C189.21119876 1.86716308 179.23085835 2.72527887 170.03759766 2.75708008 C168.22982718 2.75600569 166.42205705 2.75406469 164.61428833 2.75132751 C159.73043575 2.74650308 154.84667532 2.7541033 149.96283388 2.76428056 C144.8451273 2.77309444 139.72742332 2.77130301 134.60971069 2.7709198 C126.02380845 2.77185454 117.43794169 2.78051537 108.85205078 2.79418945 C98.92375792 2.80994296 88.9955038 2.81518641 79.06719935 2.8144539 C68.48972523 2.81377889 57.91226605 2.82071416 47.33479643 2.8299005 C44.28763618 2.83203225 41.24047834 2.83274172 38.19331741 2.83313942 C33.411318 2.83414286 28.62935118 2.84023958 23.84736252 2.85030556 C22.09134877 2.8532291 20.33533127 2.85445622 18.57931519 2.85387802 C16.18586812 2.85338809 13.79251268 2.85903539 11.39907837 2.86628723 C10.35288548 2.86396433 10.35288548 2.86396433 9.28555739 2.8615945 C6.04380139 2.87785743 3.10113538 3.00839399 0 4 C0 2.68 0 1.36 0 0 Z "
     fill="#AB2355"
     transform="translate(1955,1829)"
     id="path28" />
  <path
     d="M0 0 C0.75211793 -0.00226556 1.50423586 -0.00453111 2.27914524 -0.00686532 C4.7947551 -0.01318625 7.31031082 -0.01237719 9.82592773 -0.0115509 C11.63133819 -0.01454352 13.43674801 -0.01794629 15.24215698 -0.02172852 C20.14287019 -0.03056073 25.04356595 -0.03290626 29.94428635 -0.0335443 C34.03491812 -0.03449406 38.12554583 -0.03817299 42.21617603 -0.0417164 C51.86506672 -0.04985745 61.51394807 -0.05230089 71.1628418 -0.05158997 C81.11999388 -0.05098876 91.07709185 -0.06154991 101.03423023 -0.07733363 C109.58211173 -0.09040115 118.12997552 -0.09577422 126.67786694 -0.09513456 C131.78364654 -0.0948794 136.88937804 -0.09774035 141.99514771 -0.10831261 C146.79515692 -0.11798069 151.59507188 -0.11808164 156.39508438 -0.11079597 C158.15712751 -0.10974863 159.91917646 -0.11212185 161.68120956 -0.11815643 C164.08559878 -0.12585804 166.48966095 -0.12124383 168.89404297 -0.11352539 C169.59200265 -0.11866895 170.28996233 -0.12381252 171.0090723 -0.12911195 C174.92636092 -0.10130344 177.91579393 0.41933086 181.44702148 2.13371277 C179.32999875 2.81418436 177.91824865 3.2620905 175.74120712 2.668993 C172.62518985 1.94196271 169.69002707 2.00769099 166.49005127 2.00672913 C165.439835 2.00438914 165.439835 2.00438914 164.36840224 2.00200188 C162.02251693 1.9980136 159.67669634 2.00117319 157.33081055 2.00431824 C155.64864057 2.00296319 153.96647088 2.00118267 152.28430176 1.99900818 C147.71389191 1.99444483 143.14350461 1.99621928 138.57309437 1.99938726 C133.78821057 2.00191818 129.0033287 1.99957113 124.21844482 1.9980011 C116.17842258 1.99618084 108.13840952 1.99858121 100.09838867 2.00334167 C90.81218422 2.00877662 81.52600175 2.00702664 72.23979783 2.00151527 C64.26343544 1.99697122 56.28707966 1.99634015 48.31071639 1.99895394 C43.54857381 2.00051055 38.78644154 2.00072751 34.02429962 1.99741745 C29.54277524 1.99452024 25.06127904 1.99654839 20.57975769 2.00231171 C18.93830665 2.00362971 17.29685322 2.00326154 15.65540314 2.00104904 C13.4075459 1.99829949 11.15977789 2.00176493 8.91192627 2.00672913 C7.65610874 2.00710615 6.40029121 2.00748318 5.10641861 2.00787163 C-3.11257239 2.00092164 -3.11257239 2.00092164 -10.05297852 5.69621277 C-10.87797852 6.50058777 -11.70297852 7.30496277 -12.55297852 8.13371277 C-12.55297852 5.82371277 -12.55297852 3.51371277 -12.55297852 1.13371277 C-8.35413947 0.11576805 -4.2954205 -0.00953049 0 0 Z "
     fill="#C82963"
     transform="translate(1967.552978515625,1832.8662872314453)"
     id="path30" />
  <path
     d="M0 0 C16.83 0 33.66 0 51 0 C51 1.65 51 3.3 51 5 C50.505 4.01 50.505 4.01 50 3 C33.5 3 17 3 0 3 C0 2.01 0 1.02 0 0 Z "
     fill="#6E4B82"
     transform="translate(1904,1828)"
     id="path32" />
  <path
     d="M0 0 C16.83 0 33.66 0 51 0 C51 0.99 51 1.98 51 3 C34.17 3 17.34 3 0 3 C0 2.01 0 1.02 0 0 Z "
     fill="#6E4B82"
     transform="translate(2155,1828)"
     id="path34" />
  <path
     d="M0 0 C16.5 0 33 0 50 0 C50 0.99 50 1.98 50 3 C33.17 3 16.34 3 -1 3 C-0.67 2.01 -0.34 1.02 0 0 Z "
     fill="#815799"
     transform="translate(2156,1834)"
     id="path36" />
  <path
     d="M0 0 C16.5 0 33 0 50 0 C50 0.99 50 1.98 50 3 C33.5 3.33 17 3.66 0 4 C0 2.68 0 1.36 0 0 Z "
     fill="#81589A"
     transform="translate(1904,1834)"
     id="path38" />
  <path
     d="M0 0 C0.66 0.33 1.32 0.66 2 1 C-5.26 8.26 -12.52 15.52 -20 23 C-20 18.85395211 -17.7700282 17.16591084 -15.0625 14.3125 C-14.56903076 13.78301758 -14.07556152 13.25353516 -13.56713867 12.70800781 C-9.29599405 8.1837634 -4.76570925 4.00084233 0 0 Z "
     fill="#56346F"
     transform="translate(2015,1405)"
     id="path40" />
</svg>
