<?xml version="1.0" encoding="UTF-8" standalone="no"?>
<svg
   xmlns:dc="http://purl.org/dc/elements/1.1/"
   xmlns:cc="http://creativecommons.org/ns#"
   xmlns:rdf="http://www.w3.org/1999/02/22-rdf-syntax-ns#"
   xmlns:svg="http://www.w3.org/2000/svg"
   xmlns="http://www.w3.org/2000/svg"
   xmlns:sodipodi="http://sodipodi.sourceforge.net/DTD/sodipodi-0.dtd"
   xmlns:inkscape="http://www.inkscape.org/namespaces/inkscape"
   version="1.1"
   width="4000"
   height="5658"
   id="svg8"
   sodipodi:docname="sardine.svg"
   inkscape:version="1.0.2-2 (e86c870879, 2021-01-15)">
  <metadata
     id="metadata14">
    <rdf:RDF>
      <cc:Work
         rdf:about="">
        <dc:format>image/svg+xml</dc:format>
        <dc:type
           rdf:resource="http://purl.org/dc/dcmitype/StillImage" />
        <dc:title></dc:title>
      </cc:Work>
    </rdf:RDF>
  </metadata>
  <defs
     id="defs12" />
  <sodipodi:namedview
     pagecolor="#ffffff"
     bordercolor="#666666"
     borderopacity="1"
     objecttolerance="10"
     gridtolerance="10"
     guidetolerance="10"
     inkscape:pageopacity="0"
     inkscape:pageshadow="2"
     inkscape:window-width="850"
     inkscape:window-height="480"
     id="namedview10"
     showgrid="false"
     inkscape:zoom="0.044217359"
     inkscape:cx="2000"
     inkscape:cy="2829"
     inkscape:window-x="0"
     inkscape:window-y="0"
     inkscape:window-maximized="0"
     inkscape:current-layer="svg8" />
  <path
     d="M0 0 C0.90395508 -0.00067474 1.80791016 -0.00134949 2.73925781 -0.00204468 C48.55385283 0.0519915 101.96917664 6.40702327 136.625 39 C148.53695941 51.32523147 157.35479537 67.70619224 161.5 84.25 C161.87125 85.50554688 162.2425 86.76109375 162.625 88.0546875 C168.7257006 110.42827013 166.88975076 136.6973878 162.5 159.25 C162.14363157 161.23160925 161.78821038 163.21338901 161.43359375 165.1953125 C153.1448863 210.180612 135.30488962 251.39459323 111.5 290.25 C110.72293701 291.52907227 110.72293701 291.52907227 109.93017578 292.83398438 C103.12452121 304.0011169 95.76214785 314.66186003 88.0078125 325.18798828 C86.17452061 327.69510993 84.3831251 330.22995752 82.59521484 332.76953125 C70.72665707 349.60113138 57.63815813 365.79725923 43.65625 380.9140625 C41.75319679 382.97570348 39.89820114 385.06605292 38.0625 387.1875 C34.31345331 391.49715181 30.4526969 395.7022492 26.58129883 399.90161133 C24.63954782 402.00926085 22.70338543 404.12175352 20.77319336 406.23999023 C13.99738427 413.65642947 7.04240355 420.86505071 -0.07421875 427.95458984 C-1.76681347 429.64175958 -3.45390597 431.33430196 -5.140625 433.02734375 C-10.25253431 438.14205441 -15.38195089 443.15638152 -20.88574219 447.85400391 C-23.03620911 449.71370897 -25.02106881 451.71017861 -27 453.75 C-30.26724375 457.05607347 -33.62015631 460.15745461 -37.1484375 463.1796875 C-39.64409963 465.37686512 -42.06766969 467.63902938 -44.49121094 469.91503906 C-50.03532293 475.12026163 -55.65154107 480.11736133 -61.58984375 484.875 C-65.12551497 487.76048738 -68.5622538 490.74912777 -72 493.75 C-78.07024065 499.04040187 -84.23876673 504.18632189 -90.5 509.25 C-92.25055405 510.68682524 -94.00054093 512.12434173 -95.75 513.5625 C-97.66532857 515.12663997 -99.58208952 516.68902699 -101.5 518.25 C-102.03544434 518.68650879 -102.57088867 519.12301758 -103.12255859 519.57275391 C-112.41125501 527.12898184 -121.91591885 534.36383518 -131.515625 541.51953125 C-136.08519328 544.92911867 -140.60888483 548.3951276 -145.125 551.875 C-153.78030973 558.52434069 -162.61019255 564.91878904 -171.5 571.25 C-172.5832959 572.02174561 -172.5832959 572.02174561 -173.68847656 572.80908203 C-199.78757553 591.37302353 -226.3758696 609.21823447 -253.5 626.25 C-254.45970703 626.85408691 -255.41941406 627.45817383 -256.40820312 628.08056641 C-295.78235694 652.85379383 -335.70276874 676.74078599 -376.69873047 698.73828125 C-379.38159548 700.18610243 -382.05403142 701.65112361 -384.72265625 703.125 C-425.2709785 725.50953958 -466.87471153 746.61862435 -509.07568359 765.69384766 C-512.91003167 767.43633551 -516.7307089 769.20697864 -520.55078125 770.98046875 C-604.34693288 809.81267064 -691.40817131 842.1672406 -894.76989746 903.54290771 C-897.46466469 904.24084821 -900.15862061 904.941858 -902.85253906 905.64306641 C-1000.20684809 930.91862989 -1099.76145139 948.04544439 -1227.5 959.25 C-1229.11343292 959.37375 -1229.11343292 959.37375 -1230.75946045 959.5 C-1295.91640505 964.47892165 -1362.3931982 964.63262153 -1427.5703125 959.90625 C-1450.08439063 958.27704422 -1450.08439063 958.27704422 -1469.9375 968.0625 C-1471.0977771 968.91376465 -1471.0977771 968.91376465 -1472.28149414 969.78222656 C-1479.96684169 975.48131534 -1487.33178819 981.55232869 -1494.65332031 987.70751953 C-1497.17957555 989.81763066 -1499.74692876 991.87548644 -1502.3125 993.9375 C-1507.29631672 998.00483978 -1512.01590141 1002.32325975 -1516.73046875 1006.6953125 C-1518.95918393 1008.75113722 -1521.20767919 1010.76616957 -1523.5 1012.75 C-1533.05071763 1021.07276822 -1542.12138931 1029.76304116 -1551.00537109 1038.79223633 C-1555.10416505 1042.93883893 -1559.28977544 1046.88842989 -1563.70947266 1050.69091797 C-1566.09026647 1052.76396805 -1568.33440706 1054.95196768 -1570.5625 1057.1875 C-1571.33722656 1057.95964844 -1572.11195313 1058.73179688 -1572.91015625 1059.52734375 C-1574.92570387 1061.64625279 -1576.84129001 1063.7886738 -1578.74609375 1066.00390625 C-1583.48908599 1071.46613585 -1588.67293646 1076.47037041 -1593.828125 1081.5390625 C-1598.04636369 1085.71425794 -1602.09745735 1089.9525048 -1605.94335938 1094.47460938 C-1607.55764273 1096.31574309 -1609.25170281 1098.03634543 -1611 1099.75 C-1613.96715801 1102.67130788 -1616.70058971 1105.72991673 -1619.41796875 1108.8828125 C-1622.06045882 1111.8872196 -1624.77824477 1114.81749309 -1627.5 1117.75 C-1631.33131333 1121.88195847 -1635.11636285 1126.04039695 -1638.80078125 1130.3046875 C-1640.79406428 1132.5866529 -1642.83493027 1134.82228574 -1644.875 1137.0625 C-1647.98528851 1140.50378205 -1650.96478312 1144.01321298 -1653.875 1147.625 C-1657.11952517 1151.63826284 -1660.48747183 1155.47415384 -1664 1159.25 C-1668.21023142 1163.77991325 -1672.17637846 1168.45292164 -1676.0546875 1173.26953125 C-1678.97003882 1176.82290674 -1681.9781491 1180.2872091 -1685 1183.75 C-1689.51812846 1188.93259732 -1693.93927375 1194.1747506 -1698.265625 1199.51953125 C-1700.76158819 1202.56966808 -1703.3154731 1205.56578405 -1705.875 1208.5625 C-1710.17946221 1213.61216753 -1714.30348046 1218.77996731 -1718.37451172 1224.01879883 C-1721.49106746 1228.01212789 -1724.70542808 1231.90262792 -1728 1235.75 C-1733.22445605 1241.85849487 -1738.1969851 1248.14285996 -1743.12939453 1254.48828125 C-1745.39044917 1257.394546 -1747.6634475 1260.29140092 -1749.9375 1263.1875 C-1750.39012207 1263.7645166 -1750.84274414 1264.3415332 -1751.30908203 1264.93603516 C-1754.14386577 1268.5438507 -1757.00445621 1272.12969755 -1759.88061523 1275.70458984 C-1765.18193916 1282.29551863 -1770.37328894 1288.95970826 -1775.49462891 1295.69140625 C-1780.12935193 1301.78078303 -1784.82666598 1307.81967399 -1789.53710938 1313.85058594 C-1792.87392282 1318.13139104 -1796.15043486 1322.44659394 -1799.375 1326.8125 C-1807.41983978 1337.50444699 -1815.23229321 1346.59386394 -1829.12109375 1349.00390625 C-1839.07695298 1350.03382272 -1846.72885097 1349.07899462 -1855.6875 1344.6875 C-1860.54033322 1340.48171121 -1864.26372581 1334.61319625 -1865.5 1328.25 C-1866.02622148 1319.39997591 -1865.36087407 1311.2463444 -1863.125 1302.6875 C-1862.83028809 1301.53878418 -1862.53557617 1300.39006836 -1862.23193359 1299.20654297 C-1844.42948586 1232.16224539 -1817.0261227 1165.36998336 -1788.5 1102.25 C-1788.00387207 1101.15171875 -1787.50774414 1100.0534375 -1786.99658203 1098.921875 C-1783.55582538 1091.33699652 -1780.0424936 1083.78779598 -1776.5 1076.25 C-1776.02240234 1075.22632324 -1775.54480469 1074.20264648 -1775.05273438 1073.14794922 C-1763.7188446 1048.88897743 -1751.2685446 1025.14730294 -1737.11328125 1002.40625 C-1736.73550537 1001.79837646 -1736.35772949 1001.19050293 -1735.96850586 1000.56420898 C-1734.95190914 998.9357023 -1733.9255642 997.31329208 -1732.8984375 995.69140625 C-1731.33432141 993.42968249 -1731.33432141 993.42968249 -1731.5 991.25 C-1734.83510152 989.58244924 -1738.60550828 989.75786554 -1742.28125 989.48828125 C-1744.1531423 989.34158028 -1746.02496564 989.19399747 -1747.89672852 989.0456543 C-1748.89020294 988.96761566 -1749.88367737 988.88957703 -1750.90725708 988.80917358 C-1844.54451415 981.34077469 -1935.41428834 956.65791951 -2061.8125 913.75 C-2062.99625214 913.33039505 -2062.99625214 913.33039505 -2064.20391846 912.90231323 C-2072.33784194 910.01140763 -2080.38983659 906.97890978 -2088.32421875 903.57421875 C-2088.9816658 903.29634521 -2089.63911285 903.01847168 -2090.31648254 902.73217773 C-2095.18033338 900.59639979 -2099.77460423 897.9644951 -2102.5 893.25 C-2102.5 891.93 -2102.5 890.61 -2102.5 889.25 C-2103.49 889.25 -2104.48 889.25 -2105.5 889.25 C-2105.5 887.27 -2105.5 885.29 -2105.5 883.25 C-2106.82 882.92 -2108.14 882.59 -2109.5 882.25 C-2109.5 875.65 -2109.5 869.05 -2109.5 862.25 C-2108.18 861.59 -2106.86 860.93 -2105.5 860.25 C-2104.68415432 857.19091587 -2104.68415432 857.19091587 -2104.5 854.25 C-2103.84 854.25 -2103.18 854.25 -2102.5 854.25 C-2102.438125 853.4146875 -2102.438125 853.4146875 -2102.375 852.5625 C-2101.03615786 849.02413148 -2098.63759035 847.16598755 -2095.5 845.25 C-2080.68332505 838.78152623 -2062.04629656 839.63699476 -2046.20898438 838.83642578 C-2043.75934771 838.7081008 -2041.30973901 838.57924115 -2038.86015606 838.44989491 C-2033.5674804 838.17163746 -2028.27463188 837.89710105 -2022.98158836 837.6259594 C-2015.15558136 837.22504994 -2007.32994508 836.81723187 -1999.50437009 836.40798687 C-1986.43558086 835.72472978 -1973.36651006 835.04701332 -1960.29727173 834.37240601 C-1947.43493473 833.70844235 -1934.57276289 833.04139758 -1921.71078491 832.37051392 C-1920.51280181 832.30802797 -1920.51280181 832.30802797 -1919.29061703 832.24427968 C-1916.05503715 832.07550059 -1912.81945856 831.90669685 -1909.58388152 831.73786345 C-1849.44541985 828.59982498 -1789.30543244 825.49164441 -1729.16401504 822.41079056 C-1718.84670271 821.88225065 -1708.529451 821.35254219 -1698.21224976 820.82183838 C-1696.87576697 820.75309941 -1695.53928417 820.68436079 -1694.20280135 820.61562252 C-1688.95108827 820.34549655 -1683.69937629 820.07534948 -1678.44767308 819.80503178 C-1663.30974548 819.02590452 -1648.17158695 818.25166653 -1633.03297597 817.4859274 C-1623.63575547 817.01031567 -1614.23879228 816.52983618 -1604.84201831 816.04548281 C-1599.47392361 815.76899181 -1594.10573463 815.49488845 -1588.73719215 815.22722054 C-1583.85752219 814.98392553 -1578.97823269 814.73408966 -1574.0991621 814.4790647 C-1572.34413503 814.38850506 -1570.58898137 814.30035805 -1568.83369732 814.2149241 C-1551.37383379 813.36263133 -1540.89686094 812.03846031 -1528.3203125 799.23046875 C-1527.54871796 798.45367264 -1526.77712341 797.67687653 -1525.98214722 796.87654114 C-1523.52493716 794.40159089 -1521.07452811 791.92005166 -1518.625 789.4375 C-1516.18178134 786.966512 -1513.73706256 784.49705733 -1511.28927612 782.03059387 C-1509.7704112 780.49963648 -1508.25422455 778.96601542 -1506.74124146 777.429245 C-1502.69770855 773.34802824 -1498.55927523 769.45668211 -1494.19418335 765.72029114 C-1492.01919193 763.83273239 -1490.00465611 761.81633784 -1488 759.75 C-1484.59629724 756.29951094 -1481.07561011 753.08362606 -1477.3984375 749.9296875 C-1474.94328731 747.75743528 -1472.66935697 745.43222536 -1470.37451172 743.09326172 C-1468.56632643 741.3152207 -1466.70379523 739.65295598 -1464.78125 738 C-1460.58654563 734.35326989 -1456.53474835 730.57197842 -1452.5 726.75 C-1447.86697248 722.36129229 -1443.1813581 718.06332496 -1438.36181641 713.87988281 C-1435.75358726 711.59657076 -1433.22407241 709.23773737 -1430.6875 706.875 C-1426.91258873 703.38232509 -1423.07441715 700.03489993 -1419.0625 696.8125 C-1414.87762201 693.44653338 -1410.91689536 689.91820359 -1407 686.25 C-1402.19456083 681.75038725 -1397.24838757 677.51896541 -1392.11328125 673.39453125 C-1389.50152377 671.25125044 -1386.99634698 669.0261967 -1384.5 666.75 C-1380.27986056 662.90808061 -1375.91972816 659.28884779 -1371.484375 655.69921875 C-1368.11238107 652.93188865 -1364.8034785 650.09838234 -1361.5 647.25 C-1356.56625759 643.00144426 -1351.58668553 638.82257414 -1346.53125 634.71875 C-1344.1895377 632.81158225 -1341.85740313 630.89475202 -1339.53125 628.96875 C-1332.26595615 622.9558363 -1324.96715922 617.00702603 -1317.52148438 611.21875 C-1313.65669626 608.19952263 -1309.90558099 605.07243472 -1306.1875 601.875 C-1300.60341167 597.08274948 -1294.81247023 592.60466023 -1288.94702148 588.16333008 C-1284.15680717 584.53206461 -1279.43097208 580.83341816 -1274.75 577.0625 C-1268.07497886 571.69214208 -1261.314221 566.44227833 -1254.5 561.25 C-1253.75008789 560.67797852 -1253.00017578 560.10595703 -1252.22753906 559.51660156 C-1247.83988044 556.16990584 -1243.45018246 552.8259118 -1239.05859375 549.484375 C-1235.35827829 546.66794056 -1231.66334981 543.84465513 -1227.97265625 541.015625 C-1219.9719977 534.88843844 -1211.97467554 528.77803698 -1203.73779297 522.97070312 C-1198.8339663 519.51053309 -1194.00988802 515.94755003 -1189.1875 512.375 C-1182.4646607 507.40110483 -1175.68755718 502.5176821 -1168.84008789 497.71704102 C-1163.73125947 494.13213772 -1158.67261537 490.48294476 -1153.625 486.8125 C-1145.26935803 480.74910577 -1136.77224583 474.90821726 -1128.22973633 469.11230469 C-1126.17828965 467.71274872 -1124.1316804 466.3072138 -1122.08862305 464.89550781 C-1111.88701381 457.84931557 -1101.60225208 450.93332528 -1091.2824707 444.06152344 C-1088.56801998 442.25367635 -1085.85522473 440.44336519 -1083.14257812 438.6328125 C-1072.31881026 431.41545264 -1061.44840914 424.27687405 -1050.5 417.25 C-1049.01681274 416.29770508 -1049.01681274 416.29770508 -1047.50366211 415.32617188 C-1044.98432734 413.71312474 -1042.46202805 412.10490531 -1039.9375 410.5 C-1039.02605225 409.92056641 -1038.11460449 409.34113281 -1037.17553711 408.74414062 C-1019.75848473 397.68870403 -1002.23561708 386.81472059 -984.59130859 376.12597656 C-981.28274727 374.11815906 -977.97892861 372.10264102 -974.67578125 370.0859375 C-959.7202201 360.960675 -944.68153603 351.99580699 -929.5 343.25 C-928.41283691 342.62270996 -927.32567383 341.99541992 -926.20556641 341.34912109 C-892.47099112 321.90565945 -858.2883655 303.3110627 -823.6875 285.453125 C-819.17386374 283.121997 -814.67562854 280.76440923 -810.1887207 278.38232422 C-791.27649476 268.34475413 -772.05274335 258.90707974 -752.69580078 249.76025391 C-750.45103611 248.6994354 -748.20731143 247.63641478 -745.96435547 246.57177734 C-666.59797894 208.90224574 -584.86949335 176.95820147 -334.109375 102.6875 C-333.23114075 102.48523804 -332.35290649 102.28297607 -331.44805908 102.07458496 C-326.92707646 101.03353831 -322.40386277 100.00463134 -317.8762207 98.99291992 C-308.59230778 96.8910754 -299.81154853 94.69596255 -291.1875 90.5625 C-289.66745361 89.8670105 -289.66745361 89.8670105 -288.11669922 89.1574707 C-285.8363393 88.11387934 -283.55946913 87.06263797 -281.28564453 86.00488281 C-273.92840671 82.58450419 -266.52247458 79.26966722 -259.125 75.9375 C-258.29385681 75.56279572 -257.46271362 75.18809143 -256.60638428 74.80203247 C-175.61978901 38.31529577 -90.46511534 0.06094083 0 0 Z "
     fill="#6B9821"
     transform="translate(3317.5,3244.75)"
     id="path2" />
  <path
     d="M0 0 C0.90395508 -0.00067474 1.80791016 -0.00134949 2.73925781 -0.00204468 C48.55385283 0.0519915 101.96917664 6.40702327 136.625 39 C148.53695941 51.32523147 157.35479537 67.70619224 161.5 84.25 C161.87125 85.50554688 162.2425 86.76109375 162.625 88.0546875 C168.7257006 110.42827013 166.88975076 136.6973878 162.5 159.25 C162.14363157 161.23160925 161.78821038 163.21338901 161.43359375 165.1953125 C153.1448863 210.180612 135.30488962 251.39459323 111.5 290.25 C110.72293701 291.52907227 110.72293701 291.52907227 109.93017578 292.83398438 C103.12452121 304.0011169 95.76214785 314.66186003 88.0078125 325.18798828 C86.17452061 327.69510993 84.3831251 330.22995752 82.59521484 332.76953125 C70.72665707 349.60113138 57.63815813 365.79725923 43.65625 380.9140625 C41.75319679 382.97570348 39.89820114 385.06605292 38.0625 387.1875 C34.31345331 391.49715181 30.4526969 395.7022492 26.58129883 399.90161133 C24.63954782 402.00926085 22.70338543 404.12175352 20.77319336 406.23999023 C13.99738427 413.65642947 7.04240355 420.86505071 -0.07421875 427.95458984 C-1.76681347 429.64175958 -3.45390597 431.33430196 -5.140625 433.02734375 C-10.25253431 438.14205441 -15.38195089 443.15638152 -20.88574219 447.85400391 C-23.03620911 449.71370897 -25.02106881 451.71017861 -27 453.75 C-30.26724375 457.05607347 -33.62015631 460.15745461 -37.1484375 463.1796875 C-39.64409963 465.37686512 -42.06766969 467.63902938 -44.49121094 469.91503906 C-50.03532293 475.12026163 -55.65154107 480.11736133 -61.58984375 484.875 C-65.12551497 487.76048738 -68.5622538 490.74912777 -72 493.75 C-78.07024065 499.04040187 -84.23876673 504.18632189 -90.5 509.25 C-92.25055405 510.68682524 -94.00054093 512.12434173 -95.75 513.5625 C-97.66532857 515.12663997 -99.58208952 516.68902699 -101.5 518.25 C-102.03544434 518.68650879 -102.57088867 519.12301758 -103.12255859 519.57275391 C-112.41125501 527.12898184 -121.91591885 534.36383518 -131.515625 541.51953125 C-136.08519328 544.92911867 -140.60888483 548.3951276 -145.125 551.875 C-153.78030973 558.52434069 -162.61019255 564.91878904 -171.5 571.25 C-172.5832959 572.02174561 -172.5832959 572.02174561 -173.68847656 572.80908203 C-199.78757553 591.37302353 -226.3758696 609.21823447 -253.5 626.25 C-254.45970703 626.85408691 -255.41941406 627.45817383 -256.40820312 628.08056641 C-295.78235694 652.85379383 -335.70276874 676.74078599 -376.69873047 698.73828125 C-379.38159548 700.18610243 -382.05403142 701.65112361 -384.72265625 703.125 C-425.2709785 725.50953958 -466.87471153 746.61862435 -509.07568359 765.69384766 C-512.91003167 767.43633551 -516.7307089 769.20697864 -520.55078125 770.98046875 C-604.34693288 809.81267064 -691.40817131 842.1672406 -894.76989746 903.54290771 C-897.46466469 904.24084821 -900.15862061 904.941858 -902.85253906 905.64306641 C-1000.20684809 930.91862989 -1099.76145139 948.04544439 -1227.5 959.25 C-1229.11343292 959.37375 -1229.11343292 959.37375 -1230.75946045 959.5 C-1295.91640505 964.47892165 -1362.3931982 964.63262153 -1427.5703125 959.90625 C-1450.08439063 958.27704422 -1450.08439063 958.27704422 -1469.9375 968.0625 C-1471.0977771 968.91376465 -1471.0977771 968.91376465 -1472.28149414 969.78222656 C-1479.96684169 975.48131534 -1487.33178819 981.55232869 -1494.65332031 987.70751953 C-1497.17957555 989.81763066 -1499.74692876 991.87548644 -1502.3125 993.9375 C-1507.29631672 998.00483978 -1512.01590141 1002.32325975 -1516.73046875 1006.6953125 C-1518.95918393 1008.75113722 -1521.20767919 1010.76616957 -1523.5 1012.75 C-1533.05071763 1021.07276822 -1542.12138931 1029.76304116 -1551.00537109 1038.79223633 C-1555.10416505 1042.93883893 -1559.28977544 1046.88842989 -1563.70947266 1050.69091797 C-1566.09026647 1052.76396805 -1568.33440706 1054.95196768 -1570.5625 1057.1875 C-1571.33722656 1057.95964844 -1572.11195313 1058.73179688 -1572.91015625 1059.52734375 C-1574.92570387 1061.64625279 -1576.84129001 1063.7886738 -1578.74609375 1066.00390625 C-1583.48908599 1071.46613585 -1588.67293646 1076.47037041 -1593.828125 1081.5390625 C-1598.04636369 1085.71425794 -1602.09745735 1089.9525048 -1605.94335938 1094.47460938 C-1607.55764273 1096.31574309 -1609.25170281 1098.03634543 -1611 1099.75 C-1613.96715801 1102.67130788 -1616.70058971 1105.72991673 -1619.41796875 1108.8828125 C-1622.06045882 1111.8872196 -1624.77824477 1114.81749309 -1627.5 1117.75 C-1631.33131333 1121.88195847 -1635.11636285 1126.04039695 -1638.80078125 1130.3046875 C-1640.79406428 1132.5866529 -1642.83493027 1134.82228574 -1644.875 1137.0625 C-1647.98528851 1140.50378205 -1650.96478312 1144.01321298 -1653.875 1147.625 C-1657.11952517 1151.63826284 -1660.48747183 1155.47415384 -1664 1159.25 C-1668.21023142 1163.77991325 -1672.17637846 1168.45292164 -1676.0546875 1173.26953125 C-1678.97003882 1176.82290674 -1681.9781491 1180.2872091 -1685 1183.75 C-1689.51812846 1188.93259732 -1693.93927375 1194.1747506 -1698.265625 1199.51953125 C-1700.76158819 1202.56966808 -1703.3154731 1205.56578405 -1705.875 1208.5625 C-1710.17946221 1213.61216753 -1714.30348046 1218.77996731 -1718.37451172 1224.01879883 C-1721.49106746 1228.01212789 -1724.70542808 1231.90262792 -1728 1235.75 C-1733.22445605 1241.85849487 -1738.1969851 1248.14285996 -1743.12939453 1254.48828125 C-1745.39044917 1257.394546 -1747.6634475 1260.29140092 -1749.9375 1263.1875 C-1750.39012207 1263.7645166 -1750.84274414 1264.3415332 -1751.30908203 1264.93603516 C-1754.14386577 1268.5438507 -1757.00445621 1272.12969755 -1759.88061523 1275.70458984 C-1765.18193916 1282.29551863 -1770.37328894 1288.95970826 -1775.49462891 1295.69140625 C-1780.12935193 1301.78078303 -1784.82666598 1307.81967399 -1789.53710938 1313.85058594 C-1792.87392282 1318.13139104 -1796.15043486 1322.44659394 -1799.375 1326.8125 C-1807.41983978 1337.50444699 -1815.23229321 1346.59386394 -1829.12109375 1349.00390625 C-1839.07695298 1350.03382272 -1846.72885097 1349.07899462 -1855.6875 1344.6875 C-1860.54033322 1340.48171121 -1864.26372581 1334.61319625 -1865.5 1328.25 C-1866.02622148 1319.39997591 -1865.36087407 1311.2463444 -1863.125 1302.6875 C-1862.83028809 1301.53878418 -1862.53557617 1300.39006836 -1862.23193359 1299.20654297 C-1844.42948586 1232.16224539 -1817.0261227 1165.36998336 -1788.5 1102.25 C-1788.00387207 1101.15171875 -1787.50774414 1100.0534375 -1786.99658203 1098.921875 C-1783.55582538 1091.33699652 -1780.0424936 1083.78779598 -1776.5 1076.25 C-1776.02240234 1075.22632324 -1775.54480469 1074.20264648 -1775.05273438 1073.14794922 C-1763.7188446 1048.88897743 -1751.2685446 1025.14730294 -1737.11328125 1002.40625 C-1736.73550537 1001.79837646 -1736.35772949 1001.19050293 -1735.96850586 1000.56420898 C-1734.95190914 998.9357023 -1733.9255642 997.31329208 -1732.8984375 995.69140625 C-1731.33432141 993.42968249 -1731.33432141 993.42968249 -1731.5 991.25 C-1734.83510152 989.58244924 -1738.60550828 989.75786554 -1742.28125 989.48828125 C-1744.1531423 989.34158028 -1746.02496564 989.19399747 -1747.89672852 989.0456543 C-1748.89020294 988.96761566 -1749.88367737 988.88957703 -1750.90725708 988.80917358 C-1844.54451415 981.34077469 -1935.41428834 956.65791951 -2061.8125 913.75 C-2062.99625214 913.33039505 -2062.99625214 913.33039505 -2064.20391846 912.90231323 C-2072.33784194 910.01140763 -2080.38983659 906.97890978 -2088.32421875 903.57421875 C-2088.9816658 903.29634521 -2089.63911285 903.01847168 -2090.31648254 902.73217773 C-2095.18033338 900.59639979 -2099.77460423 897.9644951 -2102.5 893.25 C-2102.5 891.93 -2102.5 890.61 -2102.5 889.25 C-2103.49 889.25 -2104.48 889.25 -2105.5 889.25 C-2105.5 887.27 -2105.5 885.29 -2105.5 883.25 C-2106.82 882.92 -2108.14 882.59 -2109.5 882.25 C-2109.5 875.65 -2109.5 869.05 -2109.5 862.25 C-2108.18 861.59 -2106.86 860.93 -2105.5 860.25 C-2104.68415432 857.19091587 -2104.68415432 857.19091587 -2104.5 854.25 C-2103.84 854.25 -2103.18 854.25 -2102.5 854.25 C-2102.438125 853.4146875 -2102.438125 853.4146875 -2102.375 852.5625 C-2101.03615786 849.02413148 -2098.63759035 847.16598755 -2095.5 845.25 C-2080.68332505 838.78152623 -2062.04629656 839.63699476 -2046.20898438 838.83642578 C-2043.75934771 838.7081008 -2041.30973901 838.57924115 -2038.86015606 838.44989491 C-2033.5674804 838.17163746 -2028.27463188 837.89710105 -2022.98158836 837.6259594 C-2015.15558136 837.22504994 -2007.32994508 836.81723187 -1999.50437009 836.40798687 C-1986.43558086 835.72472978 -1973.36651006 835.04701332 -1960.29727173 834.37240601 C-1947.43493473 833.70844235 -1934.57276289 833.04139758 -1921.71078491 832.37051392 C-1920.51280181 832.30802797 -1920.51280181 832.30802797 -1919.29061703 832.24427968 C-1916.05503715 832.07550059 -1912.81945856 831.90669685 -1909.58388152 831.73786345 C-1849.44541985 828.59982498 -1789.30543244 825.49164441 -1729.16401504 822.41079056 C-1718.84670271 821.88225065 -1708.529451 821.35254219 -1698.21224976 820.82183838 C-1696.87576697 820.75309941 -1695.53928417 820.68436079 -1694.20280135 820.61562252 C-1688.95108827 820.34549655 -1683.69937629 820.07534948 -1678.44767308 819.80503178 C-1663.30974548 819.02590452 -1648.17158695 818.25166653 -1633.03297597 817.4859274 C-1623.63575547 817.01031567 -1614.23879228 816.52983618 -1604.84201831 816.04548281 C-1599.47392361 815.76899181 -1594.10573463 815.49488845 -1588.73719215 815.22722054 C-1583.85752219 814.98392553 -1578.97823269 814.73408966 -1574.0991621 814.4790647 C-1572.34413503 814.38850506 -1570.58898137 814.30035805 -1568.83369732 814.2149241 C-1551.37383379 813.36263133 -1540.89686094 812.03846031 -1528.3203125 799.23046875 C-1527.54871796 798.45367264 -1526.77712341 797.67687653 -1525.98214722 796.87654114 C-1523.52493716 794.40159089 -1521.07452811 791.92005166 -1518.625 789.4375 C-1516.18178134 786.966512 -1513.73706256 784.49705733 -1511.28927612 782.03059387 C-1509.7704112 780.49963648 -1508.25422455 778.96601542 -1506.74124146 777.429245 C-1502.69770855 773.34802824 -1498.55927523 769.45668211 -1494.19418335 765.72029114 C-1492.01919193 763.83273239 -1490.00465611 761.81633784 -1488 759.75 C-1484.59629724 756.29951094 -1481.07561011 753.08362606 -1477.3984375 749.9296875 C-1474.94328731 747.75743528 -1472.66935697 745.43222536 -1470.37451172 743.09326172 C-1468.56632643 741.3152207 -1466.70379523 739.65295598 -1464.78125 738 C-1460.58654563 734.35326989 -1456.53474835 730.57197842 -1452.5 726.75 C-1447.86697248 722.36129229 -1443.1813581 718.06332496 -1438.36181641 713.87988281 C-1435.75358726 711.59657076 -1433.22407241 709.23773737 -1430.6875 706.875 C-1426.91258873 703.38232509 -1423.07441715 700.03489993 -1419.0625 696.8125 C-1414.87762201 693.44653338 -1410.91689536 689.91820359 -1407 686.25 C-1402.19456083 681.75038725 -1397.24838757 677.51896541 -1392.11328125 673.39453125 C-1389.50152377 671.25125044 -1386.99634698 669.0261967 -1384.5 666.75 C-1380.27986056 662.90808061 -1375.91972816 659.28884779 -1371.484375 655.69921875 C-1368.11238107 652.93188865 -1364.8034785 650.09838234 -1361.5 647.25 C-1356.56625759 643.00144426 -1351.58668553 638.82257414 -1346.53125 634.71875 C-1344.1895377 632.81158225 -1341.85740313 630.89475202 -1339.53125 628.96875 C-1332.26595615 622.9558363 -1324.96715922 617.00702603 -1317.52148438 611.21875 C-1313.65669626 608.19952263 -1309.90558099 605.07243472 -1306.1875 601.875 C-1300.60341167 597.08274948 -1294.81247023 592.60466023 -1288.94702148 588.16333008 C-1284.15680717 584.53206461 -1279.43097208 580.83341816 -1274.75 577.0625 C-1268.07497886 571.69214208 -1261.314221 566.44227833 -1254.5 561.25 C-1253.75008789 560.67797852 -1253.00017578 560.10595703 -1252.22753906 559.51660156 C-1247.83988044 556.16990584 -1243.45018246 552.8259118 -1239.05859375 549.484375 C-1235.35827829 546.66794056 -1231.66334981 543.84465513 -1227.97265625 541.015625 C-1219.9719977 534.88843844 -1211.97467554 528.77803698 -1203.73779297 522.97070312 C-1198.8339663 519.51053309 -1194.00988802 515.94755003 -1189.1875 512.375 C-1182.4646607 507.40110483 -1175.68755718 502.5176821 -1168.84008789 497.71704102 C-1163.73125947 494.13213772 -1158.67261537 490.48294476 -1153.625 486.8125 C-1145.26935803 480.74910577 -1136.77224583 474.90821726 -1128.22973633 469.11230469 C-1126.17828965 467.71274872 -1124.1316804 466.3072138 -1122.08862305 464.89550781 C-1111.88701381 457.84931557 -1101.60225208 450.93332528 -1091.2824707 444.06152344 C-1088.56801998 442.25367635 -1085.85522473 440.44336519 -1083.14257812 438.6328125 C-1072.31881026 431.41545264 -1061.44840914 424.27687405 -1050.5 417.25 C-1049.01681274 416.29770508 -1049.01681274 416.29770508 -1047.50366211 415.32617188 C-1044.98432734 413.71312474 -1042.46202805 412.10490531 -1039.9375 410.5 C-1039.02605225 409.92056641 -1038.11460449 409.34113281 -1037.17553711 408.74414062 C-1019.75848473 397.68870403 -1002.23561708 386.81472059 -984.59130859 376.12597656 C-981.28274727 374.11815906 -977.97892861 372.10264102 -974.67578125 370.0859375 C-959.7202201 360.960675 -944.68153603 351.99580699 -929.5 343.25 C-928.41283691 342.62270996 -927.32567383 341.99541992 -926.20556641 341.34912109 C-892.47099112 321.90565945 -858.2883655 303.3110627 -823.6875 285.453125 C-819.17386374 283.121997 -814.67562854 280.76440923 -810.1887207 278.38232422 C-791.27649476 268.34475413 -772.05274335 258.90707974 -752.69580078 249.76025391 C-750.45103611 248.6994354 -748.20731143 247.63641478 -745.96435547 246.57177734 C-666.59797894 208.90224574 -584.86949335 176.95820147 -334.109375 102.6875 C-333.23114075 102.48523804 -332.35290649 102.28297607 -331.44805908 102.07458496 C-326.92707646 101.03353831 -322.40386277 100.00463134 -317.8762207 98.99291992 C-308.59230778 96.8910754 -299.81154853 94.69596255 -291.1875 90.5625 C-289.66745361 89.8670105 -289.66745361 89.8670105 -288.11669922 89.1574707 C-285.8363393 88.11387934 -283.55946913 87.06263797 -281.28564453 86.00488281 C-273.92840671 82.58450419 -266.52247458 79.26966722 -259.125 75.9375 C-258.29385681 75.56279572 -257.46271362 75.18809143 -256.60638428 74.80203247 C-175.61978901 38.31529577 -90.46511534 0.06094083 0 0 Z M-189.277771 71.25384521 C-192.55401805 72.72248286 -195.83379886 74.18313248 -199.11328125 75.64453125 C-208.7689417 79.95600169 -218.41207687 84.29355035 -228.03123474 88.68582153 C-231.62851597 90.32699813 -235.2285601 91.96206483 -238.8288269 93.59667969 C-240.58272086 94.39498808 -242.33531128 95.19616781 -244.0864563 96.00048828 C-258.6539995 102.69068131 -272.8673466 107.2621434 -288.56622314 110.53811646 C-394.34645747 132.75897475 -497.52955899 166.60863005 -651.5 230.25 C-652.68480957 230.77368164 -653.86961914 231.29736328 -655.09033203 231.83691406 C-673.67407339 240.06582172 -692.12791256 248.56049918 -710.5 257.25 C-711.57894531 257.75982422 -712.65789062 258.26964844 -713.76953125 258.79492188 C-731.00554188 266.96661866 -748.07735998 275.47448509 -765.1484375 283.9838295 C-766.90482458 284.85872367 -768.6619998 285.73203504 -770.41918945 286.60531616 C-784.80557196 293.75959545 -799.01091297 301.16042452 -813.07809448 308.92254639 C-816.66965762 310.89109282 -820.28643014 312.81021487 -823.91015625 314.71875 C-824.54731567 315.05460114 -825.1844751 315.39045227 -825.84094238 315.73648071 C-827.10527332 316.40255925 -828.36972761 317.0684037 -829.63430786 317.73400879 C-841.89022549 324.19182196 -854.00147678 330.84617242 -865.98388672 337.80078125 C-869.55964495 339.86032917 -873.16027682 341.87463717 -876.75976562 343.89233398 C-890.1991798 351.43310958 -903.46074706 359.26340229 -916.68835449 367.16809082 C-918.53660027 368.27185757 -920.38583812 369.37394481 -922.23535156 370.47558594 C-938.13480745 379.94768931 -953.93311223 389.55718638 -969.59228516 399.42333984 C-972.5597738 401.2875506 -975.53452167 403.13961937 -978.51171875 404.98828125 C-991.60255956 413.12059847 -1004.56506154 421.42517444 -1017.43939209 429.89556885 C-1019.81737042 431.45860659 -1022.19694601 433.01919616 -1024.57666016 434.57958984 C-1029.41962586 437.75532946 -1034.26031077 440.93452268 -1039.09973145 444.11566162 C-1041.05043166 445.39746882 -1043.00167124 446.67845563 -1044.95349121 447.95855713 C-1054.94592638 454.51425294 -1064.87687511 461.11285495 -1074.5559082 468.12475586 C-1078.58931666 471.03634228 -1082.69431948 473.83533882 -1086.8125 476.625 C-1095.07587507 482.25213978 -1103.25896046 487.98450258 -1111.41162109 493.77050781 C-1113.5070599 495.25500152 -1115.60634291 496.7338834 -1117.70703125 498.2109375 C-1139.94921378 513.8539889 -1161.87884199 529.90558514 -1183.48046875 546.421875 C-1187.96707158 549.84984121 -1192.47725254 553.24492841 -1197 556.625 C-1203.88112356 561.7724113 -1210.70899609 566.98399346 -1217.5 572.25 C-1218.18852051 572.78383301 -1218.87704102 573.31766602 -1219.58642578 573.86767578 C-1224.89692282 577.98746799 -1230.20014856 582.11652513 -1235.5 586.25 C-1236.13083496 586.74145508 -1236.76166992 587.23291016 -1237.41162109 587.73925781 C-1244.85702547 593.54345996 -1252.220388 599.43919395 -1259.53295898 605.40991211 C-1263.87774255 608.95144954 -1268.26465516 612.4316408 -1272.6875 615.875 C-1277.86176662 619.90797041 -1282.89985053 624.07536246 -1287.88745117 628.33642578 C-1291.0477659 631.03339518 -1294.24305727 633.67071148 -1297.5 636.25 C-1301.95414234 639.78010632 -1306.29051606 643.43437127 -1310.61767578 647.11767578 C-1314.00368895 649.99603485 -1317.42107244 652.82798585 -1320.875 655.625 C-1325.99606735 659.79053291 -1330.97305343 664.1084945 -1335.94604492 668.44824219 C-1339.63873842 671.66271472 -1343.37353148 674.80401236 -1347.1875 677.875 C-1351.63253811 681.47054194 -1355.8444426 685.27830195 -1360.02685547 689.17114258 C-1363.19384347 692.10200893 -1366.44120274 694.8704567 -1369.8125 697.5625 C-1375.8488887 702.41785613 -1381.42950952 707.71764045 -1387.0625 713.02734375 C-1390.14039058 715.92569071 -1393.28480175 718.72953643 -1396.48828125 721.48828125 C-1399.68957021 724.29174012 -1402.80925762 727.18428259 -1405.94042969 730.06542969 C-1409.08802438 732.96011031 -1412.25246675 735.83391737 -1415.4375 738.6875 C-1421.51531314 744.1469029 -1427.51591739 749.68834198 -1433.5 755.25 C-1434.1590332 755.86246582 -1434.81806641 756.47493164 -1435.49707031 757.10595703 C-1446.08219788 766.93249316 -1446.08219788 766.93249316 -1456.3125 777.125 C-1458.5 779.25 -1458.5 779.25 -1460.27149963 780.68915176 C-1464.61587679 784.25497695 -1467.68229532 787.69550846 -1470.57286072 792.49874115 C-1479.13081712 806.47764344 -1491.61590851 820.10351909 -1507.87579346 824.57339478 C-1534.21170263 830.77944038 -1562.74828709 829.76327778 -1589.63231426 830.26680076 C-1603.16081972 830.53013307 -1616.67789657 831.05255142 -1630.19848633 831.57373047 C-1635.40974739 831.7717859 -1640.62107786 831.96794833 -1645.83244324 832.16323853 C-1647.15107512 832.21278163 -1648.46970701 832.26232474 -1649.82829744 832.31336915 C-1658.7550241 832.64654183 -1667.6824872 832.94877999 -1676.61084295 833.23472796 C-1724.73497183 834.77730858 -1772.80549393 837.07957862 -1820.88671875 839.6171875 C-1821.81384165 839.66608816 -1822.74096454 839.71498882 -1823.69618207 839.76537132 C-1841.41209421 840.7000368 -1859.12759951 841.64229672 -1876.84260368 842.59401703 C-1899.96483101 843.8358023 -1923.08840219 845.04727472 -1946.21370934 846.23032048 C-1957.57333852 846.811624 -1968.93262991 847.39946693 -1980.29188949 847.98794329 C-1988.526892 848.41435844 -1996.76201713 848.83802242 -2004.99750328 849.25500107 C-2011.87969928 849.60351378 -2018.7615381 849.95825872 -2025.64298286 850.32131478 C-2029.12591497 850.50487424 -2032.60893553 850.68539788 -2036.09243774 850.85783052 C-2039.8450147 851.0450893 -2043.59683605 851.24349244 -2047.34867859 851.44485474 C-2048.997031 851.52305382 -2048.997031 851.52305382 -2050.67868346 851.60283267 C-2051.67494996 851.65863439 -2052.67121645 851.71443611 -2053.69767284 851.77192879 C-2054.55912983 851.81630644 -2055.42058682 851.86068409 -2056.30814856 851.90640652 C-2058.78600807 852.13795282 -2058.78600807 852.13795282 -2061.5 854.25 C-1995.37428677 880.45285096 -1927.6308343 902.45343366 -1858.5 919.25 C-1857.77306946 919.42748779 -1857.04613892 919.60497559 -1856.29718018 919.7878418 C-1819.12323283 928.85267418 -1781.56295346 935.86923109 -1743.51739502 940.02862549 C-1741.68273993 940.22994743 -1739.84888707 940.43854659 -1738.01513672 940.64794922 C-1702.89017392 944.53738834 -1666.22302409 943.89110871 -1631.5 937.25 C-1632.14324219 937.68828125 -1632.78648437 938.1265625 -1633.44921875 938.578125 C-1672.04721235 965.66830025 -1695.08586579 1010.41338461 -1716.03369141 1051.38476562 C-1716.99507156 1053.26334663 -1717.96074577 1055.13973765 -1718.93115234 1057.01367188 C-1728.61477955 1075.72362145 -1737.12318993 1094.92971245 -1745.5 1114.25 C-1745.99433533 1115.38788971 -1745.99433533 1115.38788971 -1746.49865723 1116.54876709 C-1767.98949242 1166.05638762 -1786.2332116 1216.80661192 -1803.625 1267.875 C-1803.98530304 1268.93240387 -1804.34560608 1269.98980774 -1804.71682739 1271.07925415 C-1807.00196283 1277.79488679 -1809.26675175 1284.51692788 -1811.5 1291.25 C-1811.77710815 1292.08430542 -1812.05421631 1292.91861084 -1812.33972168 1293.77819824 C-1813.08758242 1296.04448808 -1813.82386916 1298.31410312 -1814.5546875 1300.5859375 C-1814.95929199 1301.83681152 -1815.36389648 1303.08768555 -1815.78076172 1304.37646484 C-1816.8112767 1307.16994979 -1816.8112767 1307.16994979 -1815.5 1309.25 C-1814.9738208 1308.52804443 -1814.9738208 1308.52804443 -1814.43701172 1307.79150391 C-1806.76380751 1297.27968641 -1798.95578328 1286.89615211 -1790.93359375 1276.6484375 C-1787.58882449 1272.37430358 -1784.28951047 1268.06673306 -1781 1263.75 C-1771.7389391 1251.61248292 -1762.38833223 1239.54745285 -1752.82348633 1227.64746094 C-1749.55720052 1223.58212201 -1746.33273886 1219.48661566 -1743.125 1215.375 C-1738.41958969 1209.35248614 -1733.57119232 1203.45519403 -1728.6940918 1197.57128906 C-1725.03331077 1193.14448448 -1721.45486257 1188.66626565 -1717.9375 1184.125 C-1713.54402476 1178.46451997 -1708.91846787 1173.03922856 -1704.19946289 1167.6484375 C-1700.2794446 1163.16774844 -1696.48052479 1158.60485479 -1692.73046875 1153.98046875 C-1685.4937955 1145.12156402 -1677.9963127 1136.47339965 -1670.54296875 1127.796875 C-1668.49832321 1125.41616839 -1666.45973474 1123.03047191 -1664.42578125 1120.640625 C-1658.96244108 1114.22838891 -1653.42763113 1107.90921946 -1647.734375 1101.69921875 C-1645.20350994 1098.92500128 -1642.73360609 1096.10292879 -1640.26953125 1093.26953125 C-1637.48110726 1090.08715774 -1634.64354171 1086.94950574 -1631.80859375 1083.80859375 C-1630.3188072 1082.15747667 -1628.83163123 1080.50399856 -1627.34765625 1078.84765625 C-1621.13525041 1071.91627396 -1614.83093339 1065.07292675 -1608.5 1058.25 C-1607.61393066 1057.29407959 -1607.61393066 1057.29407959 -1606.70996094 1056.31884766 C-1604.87084472 1054.33597434 -1603.02952522 1052.35517094 -1601.1875 1050.375 C-1600.62522705 1049.76889893 -1600.0629541 1049.16279785 -1599.48364258 1048.53833008 C-1596.71558294 1045.5682758 -1593.91257884 1042.65340029 -1591.01953125 1039.8046875 C-1588.66455081 1037.47082671 -1586.45041221 1035.07413865 -1584.29736328 1032.5534668 C-1580.4492179 1028.13174376 -1576.37201924 1023.97764117 -1572.22265625 1019.83984375 C-1571.45247665 1019.06870743 -1570.68229706 1018.29757111 -1569.88877869 1017.50306702 C-1568.27058627 1015.88419847 -1566.65114788 1014.26657449 -1565.03051758 1012.65014648 C-1562.56932768 1010.19431282 -1560.11352191 1007.73318635 -1557.65820312 1005.27148438 C-1556.07584133 1003.68978347 -1554.49316933 1002.10839283 -1552.91015625 1000.52734375 C-1552.18594986 999.80111313 -1551.46174347 999.07488251 -1550.71559143 998.3266449 C-1546.66220327 994.29157363 -1542.51490251 990.42874613 -1538.17405701 986.70387268 C-1536.18394369 984.97551375 -1534.33044833 983.14582148 -1532.5 981.25 C-1529.3501997 978.05738688 -1526.08780511 975.07838721 -1522.6875 972.15625 C-1520.14488601 969.94054352 -1517.66889802 967.65901408 -1515.1875 965.375 C-1510.72611655 961.30582609 -1506.14055282 957.45022184 -1501.44140625 953.66015625 C-1498.72312563 951.43282671 -1496.05900711 949.15744279 -1493.40454102 946.85522461 C-1483.40834315 938.18929317 -1472.95822488 930.26180713 -1462.25 922.5 C-1461.51749023 921.96898682 -1460.78498047 921.43797363 -1460.03027344 920.89086914 C-1458.58565712 919.85094685 -1457.13345858 918.82147556 -1455.67382812 917.80273438 C-1454.20715769 916.75511263 -1452.77305179 915.66056449 -1451.37304688 914.52539062 C-1445.08180928 909.69512449 -1440.24319241 909.57033972 -1432.5 910.25 C-1431.27410156 910.33991211 -1430.04820312 910.42982422 -1428.78515625 910.52246094 C-1425.28980581 910.78884792 -1421.79952045 911.10038939 -1418.30853271 911.41830444 C-1327.93596624 919.50985446 -1235.68042546 916.39710343 -993.62365723 882.66485596 C-991.60212861 882.2699508 -989.57997411 881.87843072 -987.55761719 881.48779297 C-908.85670143 866.18875393 -831.27165623 844.88787716 -755.07000732 820.08605957 C-752.44857313 819.23327011 -749.82612458 818.38365039 -747.20361328 817.53417969 C-676.29293271 794.52233394 -606.66069688 767.43727493 -538.5 737.25 C-537.74460937 736.91548828 -536.98921875 736.58097656 -536.2109375 736.23632812 C-514.84333586 726.76462788 -493.62329571 717.05712179 -472.6328125 706.77587891 C-468.81823103 704.91793516 -464.98573865 703.09972951 -461.15039062 701.28515625 C-438.33177648 690.47547439 -415.64861097 679.29190558 -393.5703125 667.03515625 C-388.12350749 664.01848059 -382.59573003 661.16657949 -377.0625 658.3125 C-366.33901549 652.7618715 -355.83308525 646.86849107 -345.35302734 640.87353516 C-342.55205444 639.27962194 -339.74121965 637.70491744 -336.92578125 636.13671875 C-324.34532847 629.11660219 -311.99922889 621.76599957 -299.71003723 614.25280762 C-294.0897731 610.81717485 -288.44694703 607.43162948 -282.75 604.125 C-275.9211195 600.14677809 -269.20298014 595.99897065 -262.5 591.8125 C-261.09476074 590.93537354 -261.09476074 590.93537354 -259.66113281 590.04052734 C-244.90916123 580.78830519 -230.36009365 571.22565342 -215.875 561.5625 C-215.09618469 561.04319916 -214.31736938 560.52389832 -213.51495361 559.98886108 C-194.23530538 547.12551088 -175.20914436 533.93195443 -156.5 520.25 C-155.70577637 519.66976074 -154.91155273 519.08952148 -154.09326172 518.49169922 C-145.16109933 511.95885361 -136.27219867 505.37960553 -127.52734375 498.59765625 C-124.95808878 496.60524046 -122.37617232 494.63072582 -119.78979492 492.66064453 C-112.81883225 487.3392179 -106.00970572 481.82979749 -99.21875 476.28125 C-96.26888609 473.87150201 -93.29819922 471.49029419 -90.3125 469.125 C-85.93024887 465.63243409 -81.65612494 462.02137929 -77.39038086 458.38842773 C-73.92308292 455.4392611 -70.41686906 452.54726874 -66.875 449.6875 C-62.11479947 445.81420728 -57.57195216 441.74240008 -53.0546875 437.58984375 C-50.87302185 435.59165152 -48.66988691 433.62851111 -46.4375 431.6875 C-35.1515665 421.86371173 -23.93734256 411.85108662 -13.45239258 401.16992188 C-11.61755018 399.36559518 -9.72994939 397.68602657 -7.7734375 396.015625 C-3.48268328 392.28490004 0.55490106 388.34342154 4.5625 384.3125 C5.23087891 383.64798828 5.89925781 382.98347656 6.58789062 382.29882812 C10.52890707 378.35015178 14.26372975 374.28343968 17.90795898 370.06030273 C20.00162285 367.6796069 22.229106 365.46113363 24.5 363.25 C28.04918157 359.7382345 31.41968457 356.15991099 34.6640625 352.3671875 C36.8520617 349.84400545 39.11293113 347.39445481 41.375 344.9375 C45.46757435 340.44986568 49.35270834 335.84069772 53.1640625 331.11328125 C55.21735157 328.59645702 57.31469814 326.12536321 59.43505859 323.66503906 C65.59710842 316.49600413 71.29121505 309.03430611 76.89355469 301.42285156 C78.55468308 299.17603656 80.23284474 296.9427517 81.9140625 294.7109375 C90.29379754 283.53990233 98.08630282 272.08308832 105.5 260.25 C105.99709473 259.46077148 106.49418945 258.67154297 107.00634766 257.85839844 C137.46020333 209.23257156 170.52090654 140.94426186 158.47485352 81.53515625 C153.23543465 60.45895407 139.27019763 40.72125211 120.69580078 29.42382812 C116.87464659 27.38112084 112.86975859 26.05921249 108.75 24.75 C107.83895508 24.45448242 106.92791016 24.15896484 105.98925781 23.85449219 C11.84332898 -6.09955549 -82.16764634 24.14719049 -189.277771 71.25384521 Z "
     fill="#000000"
     transform="translate(3317.5,3244.75)"
     id="path4" />
  <path
     d="M0 0 C9.4964845 3.27464983 15.39736081 10.00621584 19.8671875 18.796875 C23.63131642 26.88975219 24.71691746 34.40557475 22.3671875 43.171875 C20.46829104 48.24777132 16.78199851 51.43119657 12.3671875 54.421875 C5.40473917 56.74269111 -1.55146022 55.84128994 -8.1796875 52.87109375 C-16.3205377 48.06176983 -21.10477304 41.00479454 -24.6328125 32.421875 C-25.0659375 31.473125 -25.4990625 30.524375 -25.9453125 29.546875 C-27.54650837 22.26871197 -27.81566685 14.76022529 -23.98046875 8.17578125 C-17.49857745 -0.26007149 -10.33442523 -2.26928032 0 0 Z "
     fill="#4C6E14"
     transform="translate(3284.6328125,3300.578125)"
     id="path6" />
</svg>
